<svg width="76" height="76" viewBox="0 0 76 76" fill="none" xmlns="http://www.w3.org/2000/svg">
<path d="M29.6335 35.4845C29.8185 35.2063 30.1041 35.0105 30.4302 34.9382C30.6665 34.8678 30.8663 34.7087 30.9879 34.4943C30.5309 34.6968 30.0863 34.9261 29.6563 35.181C29.6067 35.1973 29.5616 35.225 29.5247 35.2619C29.4878 35.2988 29.4601 35.3439 29.4438 35.3935C29.4095 35.4975 29.3396 35.5861 29.2465 35.6439L29.2086 35.6059C29.2771 35.5062 29.332 35.3977 29.3717 35.2834L27.6607 35.697L27.6759 35.8487C26.0445 36.046 25.6727 35.9474 24.0906 35.458C23.9388 35.4124 23.935 35.3783 23.9995 35.2L23.5215 35.2531L23.4874 35.1051C22.5321 34.7408 21.6655 34.1768 20.9454 33.451C18.9726 31.334 18.9498 31.038 18.5325 29.5736C18.3011 28.7351 18.5363 28.1736 18.5515 27.3162C18.5742 26.1022 19.1016 25.3775 19.2344 24.7515C20.3953 19.2731 27.7593 16.4466 32.5662 20.472C33.0215 20.8514 33.8068 21.8795 34.0155 22.0578C34.0838 22.1261 34.4328 22.6952 34.5808 22.8735C34.6746 22.9832 34.7386 23.1152 34.7667 23.2567C34.8112 23.4561 34.8682 23.6525 34.9374 23.8448C34.9867 24.0003 35.0588 24.1331 34.8957 24.2811C34.8577 24.319 34.8805 24.4708 34.9185 24.5466C35.2465 25.0602 35.386 25.6717 35.313 26.2767C35.1726 26.7054 35.4458 26.842 35.2333 27.3579C35.0209 27.8739 35.1916 29.3042 34.3456 30.7877C34.1141 31.1936 33.1808 32.3166 33.0746 32.6656C32.903 33.036 32.6905 33.3859 32.441 33.709C32.3159 33.9176 32.1413 34.0922 31.9326 34.2174C31.8072 34.3163 31.6939 34.4296 31.595 34.555C31.0145 35.1355 30.6351 35.1127 30.0584 35.4011C29.9294 35.4542 29.827 35.5566 29.6335 35.4845ZM26.9778 31.3112C28.4915 31.3529 28.8292 31.4099 30.0357 31.1215C31.098 30.8787 31.9933 30.2034 32.1679 29.6191C32.2166 28.8756 32.2014 28.1292 32.1223 27.3883C32.0461 26.6976 31.8319 26.0293 31.4925 25.423C31.0396 25.0294 30.5491 24.6812 30.0281 24.3835L30.0584 24.3532C30.333 24.4821 30.5894 24.6467 30.821 24.8426C30.8893 24.9109 30.9652 24.9867 31.1094 24.9792C30.6691 24.5607 30.1708 24.208 29.6297 23.932C29.4959 23.88 29.3808 23.7887 29.2997 23.6703C29.2031 23.5271 29.0573 23.4244 28.8899 23.3819C28.8254 23.6437 28.704 23.7044 28.4688 23.6285C25.0543 22.4903 24.6255 23.3136 23.9085 23.3554C23.7108 23.3767 23.5223 23.45 23.3622 23.5678C23.237 23.6475 23.1269 23.674 23.0283 23.6133C21.8674 24.5846 21.4424 24.7136 21.2945 26.2349C21.2338 26.842 21.1503 26.8496 21.4918 27.5173C21.5335 27.559 21.7308 27.7563 21.7535 27.7791C21.7459 27.9073 21.7754 28.0349 21.8387 28.1467C21.902 28.2585 21.9963 28.3495 22.1102 28.4089C22.2554 28.6619 22.455 28.8796 22.6944 29.0462C22.7209 29.065 22.7439 29.0881 22.7627 29.1145C23.4628 29.8342 24.2966 30.4102 25.2174 30.8104C25.4526 30.9166 26.0596 31.2884 26.2873 31.1746C26.3973 31.3378 26.3973 31.3378 26.5301 31.2429C26.606 31.2657 26.6136 31.425 26.7577 31.3492C26.7919 31.315 26.8526 31.5275 26.9929 31.4402L26.9778 31.3112ZM31.3446 20.4492C32.2551 20.9804 32.9191 21.8036 33.7006 22.4941C33.0647 21.6573 32.2626 20.9611 31.3446 20.4492ZM31.1928 34.335L31.227 34.3691C31.8261 34.0141 32.3157 33.5008 32.6421 32.8857L31.1928 34.335ZM23.5594 22.9987C23.1118 23.0367 22.1671 23.6323 22.0722 24.0383C22.5275 23.6372 23.0264 23.2885 23.5594 22.9987ZM21.6283 21.8947L22.6755 20.8476C22.435 20.9349 22.2165 21.0739 22.0356 21.2549C21.8547 21.4358 21.7157 21.6542 21.6283 21.8947ZM21.1238 29.8126C21.3513 30.1886 21.6534 30.5139 22.0115 30.7687C21.7915 30.3961 21.4939 30.0752 21.1389 29.8278L21.1238 29.8126ZM21.2224 31.2315C21.5129 31.6623 21.9035 32.0164 22.3606 32.2635L21.2224 31.2315ZM23.1725 30.5183L23.218 30.4728C22.9722 30.2512 22.7082 30.0507 22.4289 29.8733C22.6278 30.1486 22.8875 30.3745 23.1876 30.5335L23.1725 30.5183ZM31.6102 22.976L31.6405 22.9456L31.189 22.6383L31.1663 22.6611L31.6102 22.976Z" fill="#D36F4D"/>
<path d="M19.997 40.0523L19.9856 39.874C21.0945 40.039 22.1219 40.5533 22.9183 41.3423C23.1898 41.5769 23.4364 41.8388 23.6544 42.1238C23.8052 42.3465 23.8978 42.6035 23.9237 42.8712C23.666 42.5869 23.4265 42.2866 23.2067 41.972C22.9884 41.7758 22.7807 41.5681 22.5845 41.3498C22.5656 41.3143 22.5371 41.2847 22.5022 41.2646C22.4673 41.2445 22.4274 41.2346 22.3872 41.236C22.3606 41.3764 22.4479 41.4409 22.5351 41.513C23.8251 42.636 23.7909 43.0192 24.231 44.0435C24.4852 44.6316 24.3562 44.9275 24.4473 45.5952C24.4473 45.5952 24.5839 46.5817 24.5915 46.5892C24.8789 47.3872 25.0015 48.2352 24.9519 49.0819C24.9101 49.8824 24.5004 50.3908 23.9427 51.3354C23.6619 51.8135 23.8061 52.4888 22.9714 53.627C21.3021 55.8957 20.2588 56.4686 19.2231 56.8442C18.9575 56.9353 19.1927 56.9504 18.9499 57.0567C17.8117 57.5347 16.4497 57.0301 15.3495 56.6659C15.1484 56.6014 15.0687 56.3852 14.9094 56.3472C13.9551 55.9725 13.0866 55.4085 12.3561 54.6893C9.53338 51.8666 9.55235 50.5501 10.4591 45.9633C10.8309 44.1498 11.3962 43.1595 13.756 41.2322C15.4253 39.8664 17.9104 39.4225 18.8816 39.7488C19.0372 39.7981 19.2762 39.7109 19.3141 39.855C19.3181 39.8664 19.3246 39.8768 19.3331 39.8853C19.3417 39.8939 19.352 39.9004 19.3634 39.9044L19.997 40.0523ZM14.621 51.6655C14.133 51.2881 13.6774 50.8706 13.259 50.4173C13.1717 50.6412 14.3782 51.6124 14.621 51.6655C14.6437 51.7118 14.6768 51.7523 14.7175 51.7838C14.7583 51.8154 14.8057 51.8372 14.8562 51.8476L14.621 51.6655ZM13.6043 45.2386L13.646 45.2803C13.63 45.3469 13.6044 45.4108 13.5701 45.47C13.4166 45.6425 13.2532 45.8059 13.0807 45.9595C12.9772 46.0366 12.9024 46.1461 12.8682 46.2706C12.2991 48.4103 12.6292 48.8542 13.4639 50.091C13.5356 50.1725 13.6202 50.2417 13.7143 50.2959C14.1506 50.6184 14.3099 51.4531 17.6865 52.3939C19.8073 52.9972 21.1807 51.7831 22.262 49.7534C22.2878 49.7083 22.3035 49.6582 22.3081 49.6064C22.3127 49.5547 22.306 49.5026 22.2885 49.4537C22.0306 48.7176 21.6929 46.5817 20.6572 45.5459C20.6268 45.5156 20.6344 45.4549 20.623 45.4055C20.5453 45.3767 20.4714 45.3385 20.403 45.2917C20.242 45.1056 20.0509 44.9478 19.8377 44.8251C16.8822 43.8804 15.8654 44.5405 14.9283 44.8327C14.68 44.8726 14.4461 44.9758 14.2492 45.1324C14.2473 45.1397 14.2434 45.1463 14.2381 45.1516C14.2328 45.1569 14.2261 45.1608 14.2189 45.1627C14.0861 45.1134 14.0178 45.2348 13.9078 45.2917C13.8471 44.9275 14.3555 44.7302 15.0725 44.3395C14.6703 44.1801 13.2514 45.2728 13.0352 45.6559L13.039 45.6597C13.2666 45.508 13.4184 45.3562 13.5853 45.2196L13.6043 45.2386ZM22.1292 53.5511C21.6853 53.995 21.2149 54.4123 20.8013 54.879C21.3288 54.5287 21.7752 54.0694 22.1102 53.5321L22.1292 53.5511ZM21.8333 51.2596C21.5641 51.4643 21.3274 51.7086 21.1314 51.9842C21.4098 51.7882 21.6427 51.5346 21.8143 51.2406L21.8333 51.2596ZM21.7953 40.8035C21.8428 40.8779 21.905 40.9419 21.9781 40.9915C22.0511 41.0411 22.1335 41.0752 22.2203 41.0919C22.1189 40.9467 21.9676 40.844 21.7953 40.8035ZM13.4373 42.7043C13.1869 42.8181 13.1376 42.8598 13.0579 43.0837L13.4373 42.7043ZM21.4653 52.8872L21.4311 52.853L21.2376 53.0465L21.2642 53.0731L21.4653 52.8872ZM21.6056 40.7352L21.6284 40.7125L21.4994 40.6669L21.4728 40.6935L21.6056 40.7352ZM12.7468 53.8812L12.7734 53.8546L12.6937 53.7749L12.7468 53.8812Z" fill="#D36F4D"/>
<path d="M55.7394 27.8246C55.5687 27.54 55.5497 27.21 55.25 27.0392C55.3233 27.2516 55.4147 27.4572 55.5232 27.6539C55.6712 27.9688 55.8495 28.921 55.6901 29.1942C55.5308 29.4674 55.7432 29.8999 55.7129 30.2489C55.7091 30.3058 55.7812 30.9394 55.7774 31.3074C55.7926 33.4168 55.9405 33.2916 54.2598 35.1013C54.1614 35.2032 54.0909 35.3286 54.0549 35.4656C53.9991 35.6591 53.9147 35.8432 53.8045 36.0119C52.6474 37.9885 51.5927 37.9202 51.0919 38.1782C50.9672 38.2626 50.8167 38.3002 50.667 38.2844C50.6896 38.2159 50.7162 38.1488 50.7466 38.0834C50.5987 38.1099 50.6594 38.1706 50.5228 38.2617C50.4587 38.3103 50.3916 38.3546 50.3217 38.3945L50.2838 38.3565C50.371 38.2086 50.3521 38.2882 50.428 38.1213C49.6786 38.1761 48.9253 38.1095 48.1971 37.924L48.2844 38.0871C47.601 37.8713 46.9567 37.5472 46.376 37.1273C45.6704 36.194 45.4124 36.9224 43.3637 33.7279L43.5913 33.8266C42.8401 32.2559 42.5328 32.0093 42.787 30.4424C42.9615 29.327 43.4699 29.2283 43.7848 27.927C44.0352 26.9178 45.8411 24.0117 49.3808 23.6968C51.1754 23.5337 52.0707 23.5261 53.8842 24.5808C55.6977 25.6355 55.2462 26.4512 55.527 26.9292C55.5801 26.9823 55.6446 27.0468 55.6636 27.1113C55.7015 27.3314 55.8191 27.5476 55.7394 27.8246ZM51.7824 37.5788L51.7255 37.5219C51.5434 37.704 51.2285 37.7381 51.1488 37.833C51.3385 37.8067 51.5236 37.7543 51.6989 37.6774C51.7293 37.6471 51.771 37.6053 51.8089 37.5674C51.8469 37.5294 51.9152 37.5674 51.9228 37.4536L51.7824 37.5788ZM52.0897 30.3969C52.0859 30.3096 52.1125 30.1996 52.0745 30.1616C52.0366 30.1237 51.9683 29.9492 51.9076 29.8505C51.3688 28.9855 50.9363 28.2799 50.1131 28.1319C49.1911 27.9688 49.7337 27.7525 48.3451 27.9346L48.3109 27.7487C47.6616 27.7989 47.0267 27.966 46.4367 28.2419C45.9663 28.4316 45.6476 29.1828 46.0649 30.0554C46.2736 30.5583 46.5576 31.0266 46.9072 31.444C47.1879 31.5882 47.2183 31.8917 47.4346 31.9713C47.9467 32.218 50.4469 34.9306 52.6436 33.4927C53.0192 33.2461 52.3818 31.3719 52.2035 30.6624L52.3553 30.579L52.0897 30.3969ZM46.3533 31.5806C46.9284 32.4325 47.7069 33.1275 48.6183 33.6027C47.7602 33.0391 46.9905 32.3512 46.3343 31.5616L46.3533 31.5806ZM52.3818 37.0021L52.4387 37.059C52.8614 36.8325 53.1984 36.4741 53.3986 36.0384L52.3818 37.0021ZM53.7021 25.3851L54.8213 26.5043C54.5908 26.0117 54.1947 25.6157 53.7021 25.3851ZM44.8092 35.2265L44.7712 35.2645C45.0636 35.6492 45.4205 35.9804 45.8259 36.2433L44.8092 35.2265ZM47.3549 37.4612C46.9938 37.1316 46.5827 36.8614 46.137 36.6606C46.4979 36.9904 46.909 37.2607 47.3549 37.4612ZM46.414 25.7607L46.3571 25.7038C46.0534 25.8588 45.7976 26.0936 45.6173 26.3829L45.6514 26.417L46.414 25.7607ZM55.1248 28.2874L55.1552 28.2571L55.03 28.0333L54.9883 28.075L55.1248 28.2874ZM49.7109 27.6766L49.7033 27.7373L49.8551 27.7525L49.8589 27.7032L49.7109 27.6766ZM55.5535 29.1563L55.6408 29.1601L55.6446 29.0197L55.5573 29.0235L55.5535 29.1563Z" fill="#D36F4D"/>
<path d="M43.015 17.96C42.9847 17.74 43.2844 17.7969 43.2275 17.5807C41.8806 17.9638 42.0931 18.5481 39.6688 17.8159L39.627 17.9411C39.0797 17.7198 38.5742 17.4067 38.1322 17.0154C38.4117 17.1282 38.6777 17.272 38.9252 17.4441C39.0539 17.5244 39.1949 17.5833 39.3425 17.6186C38.4474 16.9728 37.6016 16.2613 36.8119 15.4902C36.9296 15.8279 37.3393 15.972 37.4114 16.4083C36.9243 15.9744 36.4981 15.4767 36.1442 14.9287C36.1746 14.7314 36.038 14.6252 35.9318 14.4962C35.4613 13.9043 35.5524 13.358 35.3247 12.8269C35.0554 12.1326 35.5979 10.3153 35.9773 9.68549C36.3567 9.0557 36.9258 5.32248 41.0915 4.03255C44.764 2.86402 46.0843 4.14637 46.9341 4.66234C47.9775 5.30351 48.4403 7.42811 48.6755 7.95926C48.713 8.02614 48.7375 8.09952 48.7476 8.17551C48.7292 8.59521 48.7508 9.0157 48.8121 9.4313C48.8539 9.68549 48.8273 10.4936 48.8576 10.7971C48.8647 11.1154 48.8066 11.4317 48.6869 11.7266C48.0306 13.8323 47.0631 13.6236 46.5016 15.1563C46.3431 15.4675 46.1283 15.7467 45.868 15.9796C45.538 16.4083 45.1434 17.0988 43.015 17.96ZM43.7434 8.12619C43.5424 8.13757 43.3906 7.9934 43.1971 8.08825C43.1393 8.1053 43.0787 8.11073 43.0188 8.10422C42.9589 8.0977 42.9009 8.07938 42.8481 8.05031C42.5228 7.98156 42.1889 7.96237 41.8579 7.9934C41.6549 8.03735 41.4497 8.07028 41.2432 8.09205C40.9791 8.09606 40.718 8.14879 40.4731 8.2476C40.0855 8.3081 39.7184 8.46172 39.4032 8.69528C38.4851 9.23402 38.4168 9.40095 38.3105 10.008C38.262 10.209 38.2618 10.4187 38.31 10.6198C38.3581 10.821 38.4532 11.0078 38.5875 11.1651C38.7971 11.4912 39.0456 11.7905 39.3273 12.0567C39.5701 12.0946 39.7067 12.4361 39.9343 12.5727C42.628 14.4317 43.5841 13.893 45.4469 12.493C45.5718 12.4144 45.6722 12.3023 45.7366 12.1695C45.8009 12.0368 45.8268 11.8886 45.8111 11.7418C45.7504 11.0437 45.7049 9.8676 45.0865 9.4313C44.6426 9.11641 44.6009 9.54512 44.2367 9.07467C44.1342 8.97224 44.2404 8.86601 44.2632 8.75978C44.2632 8.75978 44.2632 8.75978 44.2442 8.69528C43.6676 8.65734 43.7093 8.66113 43.7434 8.12619ZM46.2512 15.0577C46.0353 15.2185 45.8358 15.4002 45.6556 15.6002C45.2609 16.0075 44.8247 16.3724 44.3543 16.6891C44.1402 16.7854 43.9688 16.9568 43.8724 17.1709C44.8209 16.6642 45.6371 15.9416 46.255 15.0615L46.2512 15.0577ZM40.2606 8.06549C40.1772 7.98202 40.1392 7.9972 40.0823 8.02376C39.6726 8.20586 39.6119 8.23621 38.9783 8.57387C38.9625 8.58154 38.9486 8.59246 38.9374 8.60591C38.9263 8.61937 38.9181 8.63504 38.9134 8.65191C38.9087 8.66877 38.9077 8.68643 38.9104 8.70372C38.9131 8.72101 38.9194 8.73753 38.929 8.75219C39.3583 8.49615 39.803 8.26682 40.2606 8.06549ZM40.1772 13.4605C39.7143 13.146 39.288 12.7808 38.9062 12.3716C38.7974 12.2286 38.6698 12.101 38.5268 11.9922C38.9523 12.6107 39.5211 13.1171 40.1847 13.468L40.1772 13.4605ZM38.3219 6.61242C38.8986 6.21026 39.0542 6.0623 39.0731 5.89916C38.7774 6.08405 38.5219 6.32663 38.3219 6.61242ZM43.3565 17.6565C43.4058 17.6072 43.4589 17.5541 43.5082 17.5048C43.5575 17.4555 43.4741 17.4706 43.4665 17.463C43.4589 17.4555 43.3489 17.5124 43.3678 17.6452L43.3565 17.6565Z" fill="#D36F4D"/>
<path d="M31.7128 53.673C32.1415 53.5782 32.5854 53.6123 33.0407 53.4833C33.3078 53.4487 33.5791 53.4629 33.8412 53.5251C34.2842 53.6332 34.7133 53.7924 35.1197 53.9993C35.4535 54.1513 35.7589 54.3591 36.0227 54.6139C36.1327 54.724 36.9218 55.0958 37.0888 55.202C38.4584 56.0404 38.1625 56.6323 38.4508 57.1938C38.6599 57.6371 38.7749 58.119 38.7884 58.6089C38.6481 59.9861 38.6784 60.3503 38.447 60.8246C38.4128 60.8587 37.7034 62.2132 37.6996 62.2473C37.6619 62.5248 37.5717 62.7926 37.434 63.0364C37.2936 63.3362 37.176 63.6511 37.0508 63.9584C37.0091 64.0456 36.0265 65.3621 35.9202 65.438C35.4839 65.7605 34.9642 66.5231 34.1447 66.6976C33.7349 66.7962 33.8601 66.8835 33.3555 66.9404C33.3174 66.9499 33.2804 66.9639 33.2455 66.9821C32.7485 67.1832 32.6726 67.0846 32.1643 67.1377C32.0049 67.1528 31.8494 67.2022 31.6938 67.1149C31.6673 67.0883 31.599 67.1111 31.5496 67.1149C31.4524 67.1348 31.3521 67.1346 31.2549 67.1144C31.1577 67.0942 31.0656 67.0543 30.9843 66.9973L29.6717 66.6786C28.3559 66.0755 27.3004 65.0199 26.6972 63.7042C26.0029 61.8945 26.4658 61.1357 26.6024 60.1189C26.6289 59.9102 26.7541 59.7699 26.6365 59.5916C26.6394 59.2385 26.6673 58.886 26.72 58.5368C26.9514 57.061 28.7687 54.318 31.7128 53.673ZM34.7669 54.2839L34.7517 54.3446C34.8194 54.3998 34.898 54.4402 34.9823 54.4631C35.0666 54.4859 35.1548 54.4908 35.2411 54.4773L35.3549 54.5912L35.3815 54.5646C35.1854 54.4529 34.9797 54.359 34.7669 54.2839ZM36.1896 59.9709C36.33 59.6864 36.2427 59.1591 36.2313 58.8366C36.22 58.5141 35.8747 58.5331 35.6205 58.4686C35.5522 58.4534 33.826 58.0474 33.7881 58.0247C33.6 57.936 33.3921 57.898 33.1848 57.9146C32.4393 57.7999 31.6765 57.9122 30.9957 58.2371C30.3702 58.5018 29.7991 58.88 29.3112 59.3525C29.1633 59.5536 28.8522 59.6902 28.9774 60.0279C28.9803 60.0359 28.9815 60.0444 28.9809 60.0529C28.9802 60.0614 28.9777 60.0697 28.9736 60.0772C28.6739 60.7259 30.7529 63.321 34.0498 62.2473C34.9869 61.9248 35.8216 60.7411 36.1972 59.9785L36.1896 59.9709ZM34.7934 65.3583L34.8428 65.4076C35.5039 64.9377 36.066 64.3421 36.4969 63.6548L34.7934 65.3583ZM37.1153 55.7293C36.8517 55.5026 36.5444 55.3321 36.2124 55.2285C36.4845 55.443 36.7894 55.6121 37.1153 55.7293ZM36.0189 61.5758C35.7322 61.7975 35.4935 62.075 35.317 62.3915C35.6111 62.1782 35.8524 61.9005 36.0227 61.5796L36.0189 61.5758ZM28.8142 56.215C29.0794 56.1031 29.297 55.9017 29.4288 55.6459C29.175 55.7747 28.9621 55.9718 28.8142 56.215ZM34.3571 65.7112C33.9588 65.9729 34.103 65.8819 33.7881 66.0678C34.2054 65.9919 34.323 65.9198 34.3571 65.7112ZM28.966 62.7557L29.0191 62.7026C28.9242 62.6077 28.8484 62.4787 28.6625 62.4901L28.966 62.7557ZM29.7286 57.964L29.6792 57.9146C29.5654 57.945 29.5389 58.055 29.5085 58.1613L29.7286 57.964ZM35.6736 58.2333L35.6395 58.2675L35.9278 58.3889C35.9062 58.3403 35.8703 58.2994 35.8249 58.2716C35.7795 58.2438 35.7268 58.2305 35.6736 58.2333ZM37.95 60.6463C38.0373 60.559 38.0373 60.559 38.0373 60.4376L37.95 60.6463ZM35.4081 58.1043L35.3777 58.1347C35.5522 58.2106 35.5181 58.1916 35.5712 58.1385L35.4081 58.1043ZM37.4454 55.9759L37.4492 55.9722L37.3468 55.8697L37.3202 55.8963L37.4454 55.9759ZM31.8759 66.8038L31.8835 66.8569L31.9859 66.8455L31.8759 66.8038Z" fill="#D36F4D"/>
<path d="M35.4 49.8023C35.2862 49.7416 35.18 49.6885 35.0586 49.8099L35.0965 49.9693L34.3264 49.8517C33.6274 49.6811 32.9876 49.3245 32.4749 48.8197C30.8777 46.9417 30.4641 47.0897 30.4983 43.8079C30.5059 43.1706 30.8625 42.9809 31.0901 42.4573C31.3861 41.6909 30.8701 41.6454 31.6516 40.5452C31.9898 40.073 32.4892 39.741 33.0554 39.6119C33.7838 39.6422 35.1838 37.9463 37.5057 39.7143L37.5398 39.7484C38.1506 40.0102 38.2758 40.4845 38.6552 40.8639C39.137 41.3457 39.9793 41.9679 39.9072 43.3679L40.04 43.2351C40.0873 43.2888 40.1218 43.3526 40.1409 43.4216C40.16 43.4906 40.1631 43.563 40.15 43.6334C40.1097 43.8462 40.1254 44.0659 40.1955 44.2708C40.3082 44.682 40.3069 45.1161 40.1918 45.5266C39.8693 46.9038 39.1067 47.0062 38.8904 47.5488C38.2265 49.1612 38.0216 48.9563 37.4677 49.5633C37.289 49.7237 37.0766 49.842 36.8462 49.9096C36.6157 49.9772 36.3731 49.9924 36.1361 49.9541C36.2043 49.7872 36.3333 49.8023 36.4282 49.753L36.9669 49.4647C37.4701 49.2073 37.8938 48.8178 38.1924 48.3379L38.1468 48.2924C36.4585 49.7378 36.9176 49.5823 35.3924 49.7948L35.4 49.8023ZM37.4108 45.3938C37.3084 44.3429 36.6976 43.8307 35.7908 43.2806C34.7171 42.647 34.1898 43.1971 33.5145 43.2806C33.4613 44.3201 35.9805 45.8453 37.4108 45.3938ZM31.8831 40.8373C32.2522 40.7142 32.5594 40.4532 32.7405 40.1089C32.3915 40.1392 32.3194 40.3631 31.8831 40.8373ZM33.5827 44.0545C33.6907 44.3285 33.8538 44.5773 34.062 44.7855C34.2702 44.9938 34.519 45.1569 34.793 45.2648C34.3291 44.9371 33.9281 44.5284 33.6093 44.0583L33.5827 44.0545ZM37.9799 40.5679L38.0558 40.4921C37.8109 40.2246 37.5238 39.999 37.2059 39.8243C37.0883 39.7598 36.9973 39.7143 36.9669 39.5853L36.9176 39.7333L37.9799 40.5679ZM38.7766 41.3647L39.1902 42.0362C39.1771 41.9002 39.1321 41.7692 39.059 41.6539C38.9858 41.5385 38.8865 41.442 38.769 41.3722L38.7766 41.3647ZM36.3068 39.2211L36.2726 39.2552C36.4388 39.3012 36.5983 39.3688 36.7469 39.4563L36.7848 39.4184C36.6458 39.3075 36.4765 39.2414 36.2992 39.2287L36.3068 39.2211Z" fill="#D36F4D"/>
<path d="M53.0915 46.9007L53.3153 46.7982L53.2584 46.4833C53.5429 46.2974 53.8161 46.9272 53.8427 47.2801C53.8882 47.8567 54.1272 48.3234 53.9299 48.8849C53.5202 50.0534 53.1332 49.6816 52.7879 50.8767C52.2454 52.6485 51.1338 52.7812 50.6292 53.0354C50.4167 53.1341 50.117 53.062 49.8097 53.0961C49.2994 53.0941 48.7971 52.9692 48.3453 52.7319C47.0477 52.2463 47.3323 52.3563 46.2814 51.2219C45.5529 50.4328 45.1015 47.4925 45.8906 46.4378C46.2738 45.9256 45.8564 44.8254 46.8163 44.078C47.0776 43.8283 47.3636 43.6058 47.6699 43.4141C48.3187 43.084 49.4303 42.6704 50.0146 43.0422C50.206 43.1427 50.4209 43.1898 50.6368 43.1788C51.1717 43.2054 51.995 44.1652 52.2416 44.6547C53.2015 46.5782 52.5262 45.349 53.0915 46.9007ZM48.1669 46.7337C48.1571 47.1099 48.2653 47.4797 48.4762 47.7913C48.6871 48.1029 48.9902 48.3407 49.3431 48.4714C49.8591 48.6837 50.3994 48.8315 50.9517 48.9114C51.1338 48.8811 51.3083 48.8204 51.4828 48.7749C52.0254 48.6269 50.007 47.0866 49.5024 47.0524C49.1116 47.0259 48.7322 46.8589 48.3149 46.9576L48.4439 46.6768L48.1669 46.7337ZM50.4319 43.8466C51.0045 44.2085 51.5395 44.6267 52.0292 45.0948C51.5701 44.5826 51.1831 43.9756 50.4319 43.8466ZM51.9798 46.2823L51.9381 46.324C52.2644 47.1131 52.2075 47.2687 52.53 47.0676C52.3915 46.7771 52.2056 46.5117 51.9798 46.2823ZM51.0883 52.1287C51.3159 52.1059 51.4107 52.0946 51.8281 51.6241C51.9682 51.5045 52.0764 51.352 52.143 51.1802C52.0609 51.2327 51.9845 51.2937 51.9153 51.3623C51.6768 51.6551 51.3984 51.9131 51.0883 52.1287ZM50.2953 45.9029C50.4661 46.0736 50.6709 46.2102 50.8568 46.3733C51.0132 46.5675 51.19 46.7443 51.3842 46.9007C51.098 46.4929 50.7265 46.1524 50.2953 45.9029ZM50.8189 47.5267L50.5761 47.2839L50.8189 47.5267ZM45.6743 48.6876L45.6174 48.6914L45.6592 48.9152L45.7123 48.9077L45.6743 48.6876ZM50.0601 52.8457V52.7623L49.9121 52.7812L49.9197 52.842L50.0601 52.8457Z" fill="#D36F4D"/>
<path d="M70.0123 31.8383C70.0123 31.8383 70.3955 32.3278 70.3879 32.3505C70.3158 32.544 70.4865 32.6161 70.57 32.7299C70.8242 33.0524 71.0556 33.2838 70.9608 33.6898C70.9852 33.8236 70.973 33.9616 70.9256 34.0891C70.8782 34.2166 70.7973 34.329 70.6914 34.4144C70.5738 34.532 70.7142 35.3326 70.6876 35.4881C70.2892 37.6772 69.8378 36.9146 69.1397 38.2653C68.9064 38.8092 68.5049 39.2641 67.9942 39.5631C67.4835 39.8622 66.8903 39.9897 66.3018 39.927C66.1228 39.9357 65.9444 39.9005 65.7821 39.8246C65.304 39.5438 64.5794 39.3427 64.3138 38.8268C64.2463 38.7355 64.156 38.6636 64.052 38.6181C63.6157 38.3791 63.5778 37.9693 63.2591 37.4002C62.8797 36.7249 62.7697 36.8046 62.8038 36.0117C62.8359 35.5537 62.9891 35.1125 63.2477 34.7331C63.3154 34.6244 63.3447 34.4962 63.3312 34.3689C63.2325 33.0714 64.716 31.7625 65.7972 31.3034C66.295 31.0788 66.8372 30.9698 67.3831 30.9847C68.0356 31.3793 68.9803 30.8443 69.9326 31.7814L69.9857 31.8346L70.0123 31.8383ZM68.5782 34.4941C68.6503 34.3613 68.4947 34.2437 68.4644 34.0919C68.4416 34.0692 68.3885 34.0161 68.3316 34.0047C67.3182 33.8822 66.2909 34.0492 65.3685 34.4865C64.6704 34.8052 66.5826 35.8827 67.4817 35.8409C67.9142 35.8258 68.2215 35.9889 68.2026 35.545C68.1912 35.3928 68.1671 35.2417 68.1305 35.0935C68.047 34.8204 68.324 34.6952 68.5782 34.4941ZM68.1077 31.9294C68.2785 32.1001 68.5175 31.9598 68.7185 32.0091C68.9418 32.05 69.1673 32.0779 69.3939 32.0925C69.0305 31.9372 68.6453 31.8386 68.2519 31.8004C68.1608 31.8004 68.0926 31.8308 68.1001 31.9218L68.1077 31.9294ZM64.4694 36.1217C64.4652 36.2387 64.5063 36.3528 64.584 36.4403C64.6617 36.5279 64.77 36.5823 64.8867 36.5921L64.4694 36.1217ZM70.6876 33.3863C70.6537 33.266 70.5895 33.1564 70.5012 33.0681C70.4128 32.9797 70.3033 32.9155 70.183 32.8817L70.6876 33.3863ZM63.6916 37.9314C63.7366 38.0477 63.8054 38.1533 63.8936 38.2415C63.9818 38.3297 64.0875 38.3985 64.2038 38.4436L63.6916 37.9314ZM65.2092 32.6199L65.1674 32.5782C65.0864 32.5907 65.0115 32.6288 64.9535 32.6867C64.8956 32.7447 64.8575 32.8196 64.845 32.9006L65.2092 32.6199ZM69.9212 36.52L69.8795 36.4783C69.8188 36.5845 69.6632 36.6415 69.7088 36.8767L69.9212 36.52ZM69.9819 32.2026C69.9212 32.3695 70.0882 32.3923 70.0995 32.3202C70.1109 32.2481 70.0919 32.1836 69.9819 32.2026ZM65.2433 39.3769C65.1864 39.32 65.1181 39.2517 65.0309 39.2706L65.2433 39.3769ZM68.0243 38.3639L68.0622 38.4018L68.1836 38.2804L68.1533 38.2501L68.0243 38.3639Z" fill="#D36F4D"/>
<path d="M12.8604 41.7031L11.9081 42.6554L11.8777 42.625C12.1395 42.2544 12.4738 41.9407 12.8604 41.7031Z" fill="#D36F4D"/>
<path d="M36.0375 49.8564L35.8592 50.0347C35.7985 49.8678 35.7985 49.8678 36.0375 49.8564Z" fill="#D36F4D"/>
<path d="M42.8404 17.8926L42.5862 18.1468C42.6052 17.9306 42.6128 17.923 42.8404 17.8926Z" fill="#D36F4D"/>
<path d="M21.3244 55.9033L21.1689 56.0589C21.1916 55.9602 21.1916 55.9602 21.3244 55.9033Z" fill="#D36F4D"/>
<path d="M35.4001 49.8027L35.4608 49.8634L35.4343 49.89L35.4001 49.8027Z" fill="#D36F4D"/>
<path d="M19.5147 39.8668V39.8213L19.5792 39.8327L19.5982 39.8516L19.5147 39.8668Z" fill="#D36F4D"/>
<path d="M29.6374 24.1829C29.7588 24.1146 29.8271 24.2056 29.9333 24.2436C29.7778 24.2929 29.7778 24.2929 29.6374 24.1829Z" fill="#D36F4D"/>
<path d="M29.5045 24.0575L29.4172 24.0537L29.5045 24.0575Z" fill="#D36F4D"/>
<path d="M29.175 23.6284L29.1561 23.6929L29.1333 23.6701C29.1181 23.6018 29.1295 23.6208 29.175 23.6284Z" fill="#D36F4D"/>
</svg>
