<svg width="40" height="61" viewBox="0 0 40 61" fill="none" xmlns="http://www.w3.org/2000/svg">
<path d="M2.54705 2.1349C2.43743 2.20233 2.26859 2.35947 2.17923 2.49433C2.01039 2.7189 2 4.36888 2 30.6436C2 52.0476 2.02961 58.6247 2.11949 58.8493C2.32834 59.3652 3.04423 59.6238 3.49206 59.3541C3.59128 59.2978 6.73385 55.527 10.4635 50.9922L17.2458 42.7429H27.1306C37.7714 42.7429 37.4732 42.7541 37.841 42.1706C37.9304 42.0246 38 41.6992 38 41.4524C38 41.0032 37.9704 40.9698 20.7162 21.5078C4.27757 2.94288 3.42192 2.00004 3.0941 2.00004C2.905 2.00004 2.65615 2.06747 2.54705 2.1349Z" fill="#333333" stroke="#FFF9EF" stroke-width="3"/>
</svg>
