<svg width="152" height="41" viewBox="0 0 152 41" fill="none" xmlns="http://www.w3.org/2000/svg">
<path d="M151.25 20.5C151.25 22.9293 149.414 25.4301 145.624 27.8472C141.87 30.2416 136.387 32.426 129.545 34.2716C115.872 37.9597 96.9404 40.25 76 40.25C55.0596 40.25 36.1284 37.9597 22.4552 34.2716C15.6132 32.426 10.1304 30.2416 6.37573 27.8472C2.5856 25.4301 0.75 22.9293 0.75 20.5C0.75 18.0707 2.5856 15.5699 6.37573 13.1528C10.1304 10.7584 15.6132 8.57397 22.4552 6.72843C36.1284 3.04028 55.0596 0.75 76 0.75C96.9404 0.75 115.872 3.04028 129.545 6.72843C136.387 8.57397 141.87 10.7584 145.624 13.1528C149.414 15.5699 151.25 18.0707 151.25 20.5Z" stroke="white" stroke-width="1.5"/>
</svg>
