<svg width="236" height="46" viewBox="0 0 236 46" fill="none" xmlns="http://www.w3.org/2000/svg">
<path d="M235.25 23C235.25 24.3078 234.573 25.675 233.085 27.0922C231.597 28.5098 229.361 29.9129 226.413 31.2715C220.521 33.9866 211.948 36.4509 201.295 38.5273C180.001 42.6778 150.552 45.25 118 45.25C85.4483 45.25 55.9986 42.6778 34.7049 38.5273C24.0518 36.4509 15.4788 33.9866 9.58692 31.2715C6.63883 29.9129 4.40282 28.5098 2.91462 27.0922C1.42674 25.675 0.75 24.3078 0.75 23C0.75 21.6922 1.42674 20.325 2.91462 18.9078C4.40282 17.4902 6.63883 16.0871 9.58692 14.7285C15.4788 12.0134 24.0518 9.54913 34.7049 7.47269C55.9986 3.32222 85.4483 0.75 118 0.75C150.552 0.75 180.001 3.32222 201.295 7.47269C211.948 9.54913 220.521 12.0134 226.413 14.7285C229.361 16.0871 231.597 17.4902 233.085 18.9078C234.573 20.325 235.25 21.6922 235.25 23Z" stroke="#3F3F3F" stroke-width="1.5"/>
</svg>
