<svg width="157" height="178" viewBox="0 0 157 178" fill="none" xmlns="http://www.w3.org/2000/svg">
<path d="M111.659 6.35793C110.148 7.63611 107.886 7.44698 106.608 5.93548C105.33 4.42398 105.519 2.16249 107.03 0.884303C108.542 -0.393884 110.803 -0.204748 112.081 1.30675C113.36 2.81825 113.171 5.07974 111.659 6.35793ZM150.602 94.7522L149.993 94.4685L150.602 94.7522ZM71.6806 68.845L72.2776 69.1535L71.6806 68.845ZM126.531 133.707L127.056 134.126L126.531 133.707ZM0.913377 173.248C0.654608 172.982 0.660529 172.556 0.926602 172.298L5.26251 168.081C5.52858 167.822 5.95405 167.828 6.21282 168.094C6.47159 168.36 6.46567 168.786 6.19959 169.044L2.34545 172.793L6.09379 176.647C6.35256 176.913 6.34664 177.338 6.08057 177.597C5.81449 177.856 5.38903 177.85 5.13026 177.584L0.913377 173.248ZM1.4045 172.107C1.70765 172.112 2.01966 172.116 2.33972 172.121L2.32094 173.464C2.00056 173.46 1.68897 173.456 1.38579 173.451L1.4045 172.107ZM4.28411 172.147C4.91123 172.154 5.56369 172.162 6.24035 172.168L6.22764 173.512C5.54936 173.506 4.89553 173.498 4.26739 173.491L4.28411 172.147ZM8.15509 172.183C8.78134 172.186 9.4251 172.189 10.0856 172.19L10.0839 173.534C9.42127 173.533 8.77553 173.53 8.14747 173.527L8.15509 172.183ZM12.0418 172.187C12.6671 172.185 13.3055 172.181 13.9564 172.175L13.9682 173.519C13.3149 173.525 12.6743 173.529 12.0468 173.531L12.0418 172.187ZM15.8957 172.153C16.5305 172.144 17.1759 172.133 17.8314 172.12L17.8583 173.464C17.2002 173.477 16.5522 173.488 15.9149 173.497L15.8957 172.153ZM19.7585 172.076C20.3981 172.059 21.0464 172.04 21.7029 172.019L21.746 173.363C21.0866 173.384 20.4356 173.402 19.7933 173.419L19.7585 172.076ZM23.623 171.952C24.2645 171.927 24.9132 171.9 25.5687 171.871L25.6288 173.214C24.9704 173.243 24.3188 173.27 23.6745 173.295L23.623 171.952ZM27.4863 171.779C28.1279 171.746 28.7755 171.71 29.4287 171.672L29.5068 173.014C28.8505 173.052 28.1999 173.088 27.5553 173.121L27.4863 171.779ZM31.3468 171.554C31.9875 171.512 32.6332 171.468 33.2835 171.421L33.3805 172.761C32.7269 172.809 32.078 172.853 31.4342 172.895L31.3468 171.554ZM35.2039 171.275C35.8431 171.224 36.4864 171.17 37.1336 171.114L37.2502 172.453C36.5996 172.51 35.953 172.564 35.3106 172.615L35.2039 171.275ZM39.0568 170.939C39.6941 170.879 40.3348 170.816 40.9787 170.75L41.1159 172.087C40.4684 172.153 39.8242 172.217 39.1836 172.277L39.0568 170.939ZM42.9044 170.544C43.5397 170.474 44.1778 170.401 44.8185 170.325L44.9771 171.66C44.3327 171.736 43.691 171.81 43.0522 171.88L42.9044 170.544ZM46.7455 170.088C47.3786 170.007 48.0141 169.923 48.6516 169.837L48.8328 171.168C48.1914 171.256 47.5521 171.34 46.9153 171.421L46.7455 170.088ZM50.5704 169.567C51.204 169.475 51.8394 169.38 52.4765 169.282L52.6813 170.61C52.0401 170.709 51.4007 170.805 50.7632 170.897L50.5704 169.567ZM54.3847 168.979C55.0189 168.875 55.6544 168.768 56.2912 168.658L56.5206 169.983C55.8796 170.094 55.2398 170.201 54.6016 170.306L54.3847 168.979ZM58.1891 168.32C58.8228 168.204 59.4575 168.085 60.093 167.962L60.3483 169.281C59.7083 169.405 59.0692 169.525 58.4312 169.642L58.1891 168.32ZM61.9809 167.587C62.6109 167.458 63.2415 167.326 63.8725 167.191L64.1548 168.505C63.5191 168.641 62.884 168.774 62.2495 168.904L61.9809 167.587ZM65.7571 166.775C66.3833 166.634 67.0098 166.489 67.6364 166.34L67.9471 167.647C67.3157 167.797 66.6844 167.944 66.0535 168.086L65.7571 166.775ZM69.5143 165.882C70.1367 165.727 70.7591 165.568 71.3811 165.405L71.7217 166.705C71.0946 166.869 70.4672 167.03 69.8398 167.186L69.5143 165.882ZM73.2462 164.904C73.8655 164.734 74.4844 164.56 75.1026 164.382L75.4746 165.674C74.851 165.853 74.2268 166.029 73.6023 166.2L73.2462 164.904ZM76.9526 163.837C77.5681 163.651 78.1828 163.461 78.7966 163.267L79.2015 164.549C78.5821 164.745 77.9618 164.936 77.3408 165.123L76.9526 163.837ZM80.6306 162.675C81.2408 162.473 81.8499 162.267 82.4577 162.057L82.8971 163.327C82.2835 163.539 81.6685 163.747 81.0525 163.951L80.6306 162.675ZM84.275 161.413C84.8791 161.195 85.4817 160.972 86.0827 160.745L86.5584 162.002C85.9512 162.231 85.3425 162.457 84.7323 162.677L84.275 161.413ZM87.8803 160.049C88.4777 159.813 89.0732 159.572 89.6667 159.326L90.1804 160.568C89.5804 160.816 88.9785 161.06 88.3748 161.299L87.8803 160.049ZM91.4411 158.576C92.0307 158.321 92.6182 158.062 93.2033 157.797L93.7567 159.022C93.1648 159.289 92.5706 159.552 91.9744 159.81L91.4411 158.576ZM94.9517 156.989C95.5322 156.715 96.1103 156.436 96.6856 156.152L97.2805 157.358C96.6981 157.645 96.1131 157.927 95.5256 158.205L94.9517 156.989ZM98.4049 155.285C98.9751 154.99 99.5425 154.691 100.107 154.387L100.745 155.57C100.173 155.878 99.5986 156.181 99.0211 156.479L98.4049 155.285ZM101.793 153.457C102.351 153.142 102.907 152.821 103.459 152.496L104.142 153.653C103.582 153.984 103.019 154.308 102.453 154.628L101.793 153.457ZM105.107 151.502C105.652 151.165 106.195 150.823 106.733 150.476L107.462 151.605C106.916 151.958 106.366 152.305 105.812 152.646L105.107 151.502ZM108.338 149.416C108.869 149.057 109.396 148.693 109.919 148.323L110.696 149.42C110.165 149.795 109.629 150.165 109.09 150.53L108.338 149.416ZM111.477 147.195C111.991 146.814 112.502 146.427 113.008 146.034L113.832 147.095C113.318 147.494 112.8 147.888 112.277 148.275L111.477 147.195ZM114.512 144.838C115.008 144.433 115.5 144.023 115.988 143.606L116.861 144.628C116.365 145.052 115.865 145.469 115.36 145.88L114.512 144.838ZM117.432 142.342C117.909 141.915 118.38 141.482 118.847 141.042L119.768 142.021C119.294 142.468 118.814 142.909 118.329 143.343L117.432 142.342ZM120.228 139.709C120.682 139.259 121.131 138.803 121.575 138.341L122.544 139.272C122.093 139.743 121.636 140.206 121.174 140.664L120.228 139.709ZM122.889 136.937C123.318 136.466 123.742 135.989 124.161 135.506L125.177 136.385C124.751 136.877 124.319 137.363 123.882 137.843L122.889 136.937ZM125.399 134.036C125.603 133.788 125.805 133.539 126.005 133.288L127.056 134.126C126.851 134.382 126.645 134.637 126.438 134.889L125.399 134.036ZM126.005 133.288C126.21 133.031 126.412 132.776 126.611 132.52L127.671 133.346C127.469 133.606 127.264 133.866 127.056 134.126L126.005 133.288ZM127.771 130.992C128.147 130.484 128.511 129.978 128.865 129.472L129.966 130.244C129.605 130.758 129.234 131.274 128.852 131.791L127.771 130.992ZM129.91 127.939C130.268 127.397 130.615 126.856 130.949 126.318L132.091 127.026C131.75 127.576 131.397 128.128 131.031 128.681L129.91 127.939ZM131.915 124.707C132.228 124.167 132.528 123.629 132.817 123.094L134 123.731C133.705 124.279 133.398 124.829 133.078 125.381L131.915 124.707ZM133.699 121.387C133.98 120.82 134.247 120.256 134.502 119.694L135.726 120.248C135.465 120.824 135.191 121.403 134.904 121.983L133.699 121.387ZM135.238 117.986C135.481 117.39 135.71 116.798 135.925 116.208L137.188 116.668C136.967 117.275 136.732 117.883 136.482 118.495L135.238 117.986ZM136.526 114.448C136.719 113.844 136.898 113.243 137.061 112.645L138.357 112.999C138.189 113.615 138.006 114.235 137.807 114.857L136.526 114.448ZM137.517 110.818C137.655 110.21 137.777 109.606 137.885 109.006L139.208 109.243C139.097 109.864 138.97 110.487 138.828 111.115L137.517 110.818ZM138.176 107.131C138.257 106.51 138.323 105.894 138.373 105.281L139.712 105.391C139.66 106.025 139.593 106.663 139.509 107.305L138.176 107.131ZM138.48 103.407C138.5 102.778 138.504 102.155 138.493 101.536L139.837 101.511C139.848 102.153 139.844 102.799 139.823 103.45L138.48 103.407ZM138.411 99.6725C138.367 99.0446 138.308 98.4219 138.232 97.8045L139.567 97.6421C139.645 98.2824 139.706 98.9282 139.752 99.5792L138.411 99.6725ZM137.96 95.9631C137.852 95.3436 137.729 94.7297 137.59 94.1218L138.9 93.823C139.044 94.4534 139.172 95.0899 139.284 95.7324L137.96 95.9631ZM137.13 92.3154C136.959 91.7117 136.774 91.114 136.574 90.5227L137.848 90.0929C138.055 90.7055 138.247 91.3247 138.423 91.9505L137.13 92.3154ZM135.933 88.7666C135.704 88.1844 135.461 87.6087 135.204 87.0397L136.43 86.4874C136.695 87.076 136.946 87.6717 137.184 88.2744L135.933 88.7666ZM134.394 85.3505C134.111 84.7934 133.814 84.2431 133.506 83.6999L134.674 83.0358C134.993 83.5967 135.299 84.1651 135.592 84.741L134.394 85.3505ZM132.542 82.0904C132.209 81.5612 131.864 81.0392 131.508 80.5246L132.614 79.7599C132.981 80.2903 133.336 80.8286 133.68 81.3746L132.542 82.0904ZM130.408 79.0036C130.03 78.5044 129.642 78.0128 129.244 77.5291L130.282 76.675C130.691 77.1727 131.091 77.6787 131.48 78.1929L130.408 79.0036ZM128.021 76.1025C127.604 75.635 127.177 75.1755 126.742 74.7242L127.709 73.7911C128.156 74.2547 128.595 74.727 129.024 75.2076L128.021 76.1025ZM125.411 73.3958C124.959 72.9613 124.498 72.5352 124.03 72.1177L124.925 71.1148C125.405 71.5432 125.878 71.9806 126.342 72.4267L125.411 73.3958ZM122.603 70.89C122.12 70.4895 121.63 70.0979 121.134 69.7152L121.955 68.6508C122.464 69.0431 122.966 69.4447 123.461 69.8554L122.603 70.89ZM119.622 68.5907C119.111 68.2251 118.595 67.8687 118.074 67.5217L118.819 66.4028C119.353 66.7583 119.881 67.1235 120.404 67.4982L119.622 68.5907ZM116.486 66.5039C115.951 66.1739 115.412 65.8538 114.869 65.5436L115.535 64.3763C116.092 64.6941 116.644 65.022 117.192 65.36L116.486 66.5039ZM113.215 64.6365C112.658 64.3436 112.098 64.0611 111.535 63.7891L112.12 62.579C112.697 62.8576 113.271 63.1471 113.841 63.4472L113.215 64.6365ZM109.824 62.9983C109.248 62.7442 108.669 62.5013 108.09 62.2696L108.588 61.0215C109.183 61.259 109.776 61.5081 110.366 61.7685L109.824 62.9983ZM106.328 61.6019C105.734 61.3893 105.14 61.1887 104.546 61.0003L104.953 59.7191C105.563 59.9126 106.172 60.1185 106.781 60.3366L106.328 61.6019ZM102.741 60.4652C102.134 60.2977 101.527 60.1432 100.921 60.0018L101.227 58.6929C101.85 58.8384 102.474 58.9973 103.099 59.1694L102.741 60.4652ZM99.0812 59.612C98.4626 59.4944 97.8464 59.391 97.2334 59.302L97.4266 57.9719C98.0593 58.0638 98.6947 58.1704 99.3321 58.2915L99.0812 59.612ZM95.3672 59.0745C94.7423 59.0132 94.1218 58.9674 93.5065 58.9374L93.572 57.5949C94.2098 57.626 94.8523 57.6735 95.4985 57.7369L95.3672 59.0745ZM91.6277 58.8952C91.0031 58.8979 90.3852 58.9179 89.7751 58.9552L89.693 57.6137C90.3292 57.5747 90.9725 57.554 91.6217 57.5511L91.6277 58.8952ZM87.9046 59.1276C87.2844 59.2046 86.6739 59.3009 86.074 59.4167L85.8191 58.097C86.4495 57.9753 87.0899 57.8743 87.739 57.7937L87.9046 59.1276ZM84.2617 59.8355C83.6593 59.9987 83.0699 60.1834 82.4947 60.3901L82.0403 59.1251C82.6505 58.9059 83.2743 58.7105 83.9103 58.5382L84.2617 59.8355ZM80.7914 61.0856C80.2278 61.3453 79.6807 61.6286 79.1513 61.9359L78.4766 60.7735C79.0435 60.4444 79.6282 60.1417 80.2289 59.8649L80.7914 61.0856ZM77.6122 62.9339C77.1158 63.2925 76.6385 63.676 76.1815 64.0847L75.2854 63.083C75.7777 62.6426 76.2916 62.2299 76.8252 61.8444L77.6122 62.9339ZM74.8858 65.3734C74.4784 65.824 74.0916 66.2997 73.7268 66.801L72.6401 66.0101C73.0328 65.4704 73.4496 64.9578 73.8889 64.472L74.8858 65.3734ZM72.7283 68.3324C72.5726 68.5999 72.4223 68.8736 72.2776 69.1535L71.0835 68.5365C71.2385 68.2367 71.3996 67.9433 71.5667 67.6562L72.7283 68.3324ZM72.2776 69.1535C72.1309 69.4375 71.9918 69.7227 71.8602 70.009L70.6389 69.4478C70.7791 69.1426 70.9273 68.8388 71.0835 68.5365L72.2776 69.1535ZM71.1602 71.74C70.9512 72.3356 70.7727 72.9355 70.6238 73.5389L69.3189 73.2168C69.478 72.572 69.6687 71.9311 69.8919 71.295L71.1602 71.74ZM70.2626 75.3721C70.1708 75.9911 70.1083 76.6134 70.0743 77.238L68.7322 77.1649C68.7685 76.4994 68.8351 75.8357 68.9331 75.1748L70.2626 75.3721ZM70.0562 79.1122C70.0777 79.737 70.1264 80.3635 70.2013 80.991L68.8667 81.1504C68.7874 80.4863 68.7358 79.822 68.7129 79.1585L70.0562 79.1122ZM70.4982 82.8467C70.6207 83.4588 70.7673 84.0711 70.9371 84.6828L69.6421 85.0424C69.4637 84.4 69.3094 83.7558 69.1803 83.1105L70.4982 82.8467ZM71.5071 86.4915C71.7145 87.0798 71.9427 87.6668 72.1911 88.2518L70.9539 88.777C70.6949 88.167 70.4565 87.5539 70.2395 86.9383L71.5071 86.4915ZM72.9884 89.9853C73.266 90.5456 73.5616 91.1033 73.8745 91.6578L72.704 92.3184C72.3795 91.7434 72.0726 91.1644 71.784 90.5819L72.9884 89.9853ZM74.8544 93.2951C75.1912 93.8271 75.5436 94.3554 75.911 94.8795L74.8105 95.6511C74.4312 95.1101 74.0671 94.5642 73.7187 94.0139L74.8544 93.2951ZM77.0411 96.4167C77.4271 96.9183 77.8268 97.4153 78.2394 97.9071L77.2098 98.771C76.7852 98.265 76.3737 97.7533 75.9759 97.2364L77.0411 96.4167ZM79.4951 99.3437C79.9226 99.8136 80.3619 100.278 80.8123 100.736L79.8536 101.679C79.3913 101.208 78.9401 100.731 78.5008 100.248L79.4951 99.3437ZM82.1753 102.073C82.6381 102.51 83.111 102.941 83.5936 103.366L82.7061 104.375C82.2115 103.94 81.7267 103.498 81.252 103.05L82.1753 102.073ZM85.05 104.602C85.5433 105.006 86.0453 105.403 86.5556 105.793L85.7399 106.861C85.2175 106.462 84.7034 106.056 84.1982 105.642L85.05 104.602ZM88.0945 106.927C88.6145 107.297 89.142 107.659 89.6764 108.013L88.9342 109.134C88.3873 108.772 87.8475 108.401 87.3153 108.022L88.0945 106.927ZM91.2891 109.043C91.8327 109.378 92.3827 109.704 92.9385 110.021L92.2723 111.189C91.7036 110.864 91.1408 110.531 90.5845 110.188L91.2891 109.043ZM94.6172 110.943C95.1819 111.24 95.7519 111.529 96.3267 111.807L95.7404 113.017C95.1519 112.732 94.5684 112.436 93.9903 112.132L94.6172 110.943ZM98.0643 112.614C98.6479 112.872 99.2357 113.121 99.8273 113.359L99.3256 114.606C98.7195 114.362 98.1173 114.107 97.5196 113.842L98.0643 112.614ZM101.617 114.042C102.217 114.259 102.82 114.465 103.426 114.659L103.016 115.939C102.394 115.74 101.775 115.528 101.16 115.306L101.617 114.042ZM105.26 115.21C105.874 115.382 106.491 115.542 107.109 115.689L106.797 116.997C106.162 116.845 105.529 116.681 104.898 116.504L105.26 115.21ZM108.979 116.096C109.604 116.219 110.23 116.329 110.857 116.425L110.653 117.754C110.007 117.654 109.363 117.541 108.719 117.415L108.979 116.096ZM112.752 116.675C113.385 116.744 114.018 116.8 114.65 116.841L114.563 118.182C113.911 118.14 113.258 118.083 112.606 118.011L112.752 116.675ZM116.557 116.919C117.193 116.931 117.827 116.927 118.46 116.907L118.501 118.251C117.846 118.271 117.19 118.275 116.533 118.263L116.557 116.919ZM120.362 116.801C120.995 116.749 121.625 116.682 122.253 116.598L122.432 117.93C121.78 118.017 121.127 118.087 120.471 118.141L120.362 116.801ZM124.129 116.294C124.752 116.176 125.371 116.041 125.986 115.888L126.31 117.193C125.67 117.351 125.026 117.492 124.38 117.615L124.129 116.294ZM127.813 115.379C128.417 115.193 129.017 114.988 129.613 114.765L130.084 116.024C129.464 116.256 128.84 116.469 128.211 116.663L127.813 115.379ZM131.365 114.05C131.942 113.794 132.514 113.52 133.081 113.228L133.697 114.422C133.107 114.727 132.511 115.012 131.909 115.278L131.365 114.05ZM134.734 112.312C135.276 111.99 135.814 111.65 136.345 111.291L137.097 112.405C136.544 112.779 135.985 113.133 135.419 113.468L134.734 112.312ZM137.876 110.192C138.38 109.808 138.877 109.407 139.368 108.987L140.241 110.008C139.732 110.445 139.215 110.862 138.691 111.261L137.876 110.192ZM140.761 107.727C141.22 107.29 141.671 106.836 142.117 106.364L143.094 107.286C142.633 107.775 142.164 108.247 141.689 108.7L140.761 107.727ZM143.372 104.964C143.781 104.485 144.184 103.989 144.58 103.477L145.643 104.299C145.234 104.828 144.818 105.341 144.395 105.837L143.372 104.964ZM145.707 101.948C146.067 101.436 146.42 100.91 146.766 100.369L147.898 101.094C147.541 101.651 147.177 102.193 146.807 102.72L145.707 101.948ZM147.777 98.7153C148.088 98.1828 148.393 97.6369 148.691 97.0776L149.877 97.7105C149.571 98.2846 149.258 98.8453 148.938 99.3926L147.777 98.7153ZM149.568 95.3587C149.712 95.0654 149.853 94.7687 149.993 94.4685L151.211 95.0359C151.068 95.3432 150.923 95.6472 150.777 95.9478L149.568 95.3587ZM149.993 94.4685C150.131 94.1711 150.267 93.8739 150.399 93.577L151.627 94.124C151.491 94.4278 151.353 94.7317 151.211 95.0359L149.993 94.4685ZM151.156 91.7983C151.4 91.1986 151.631 90.5999 151.85 90.0024L153.112 90.4648C152.887 91.0769 152.651 91.69 152.401 92.3039L151.156 91.7983ZM152.483 88.1747C152.684 87.5606 152.872 86.9477 153.048 86.3361L154.339 86.7073C154.159 87.3344 153.966 87.9628 153.761 88.5922L152.483 88.1747ZM153.547 84.4685C153.702 83.8419 153.845 83.2167 153.975 82.593L155.291 82.8674C155.157 83.5074 155.011 84.1489 154.852 84.7917L153.547 84.4685ZM154.333 80.6954C154.441 80.0591 154.536 79.4245 154.618 78.7916L155.951 78.9651C155.866 79.6149 155.769 80.2665 155.658 80.9196L154.333 80.6954ZM154.83 76.8745C154.889 76.232 154.935 75.5913 154.969 74.9525L156.311 75.0234C156.276 75.6792 156.229 76.337 156.169 76.9968L154.83 76.8745ZM155.034 73.0266C155.043 72.3816 155.04 71.7387 155.025 71.0979L156.369 71.0665C156.384 71.7241 156.387 72.3841 156.378 73.0462L155.034 73.0266ZM154.944 69.1733C154.905 68.5296 154.854 67.8881 154.791 67.249L156.129 67.1178C156.193 67.7732 156.245 68.4312 156.286 69.0916L154.944 69.1733ZM154.568 65.3354C154.482 64.6964 154.384 64.0599 154.276 63.426L155.6 63.199C155.712 63.8485 155.812 64.5007 155.9 65.1557L154.568 65.3354ZM153.917 61.5307C153.786 60.8997 153.645 60.2715 153.493 59.6461L154.799 59.329C154.954 59.969 155.099 60.612 155.233 61.2579L153.917 61.5307ZM153.006 57.7772C152.834 57.1565 152.651 56.5387 152.459 55.9238L153.742 55.523C153.939 56.1513 154.125 56.7828 154.301 57.4175L153.006 57.7772ZM151.854 54.0881C151.643 53.4792 151.423 52.8734 151.194 52.2708L152.45 51.7929C152.684 52.4078 152.909 53.0262 153.124 53.6479L151.854 54.0881ZM150.48 50.4731C150.233 49.8772 149.978 49.2846 149.715 48.6954L150.942 48.1471C151.21 48.7475 151.47 49.3516 151.722 49.9592L150.48 50.4731ZM148.902 46.9391C148.623 46.3571 148.336 45.7787 148.042 45.2039L149.238 44.5916C149.538 45.1766 149.829 45.7654 150.114 46.358L148.902 46.9391ZM147.138 43.4908C146.829 42.9233 146.514 42.3596 146.192 41.7997L147.357 41.1295C147.684 41.6986 148.005 42.2717 148.319 42.8488L147.138 43.4908ZM145.205 40.1311C144.87 39.5784 144.529 39.0296 144.181 38.4848L145.314 37.762C145.667 38.3151 146.014 38.8724 146.355 39.4339L145.205 40.1311ZM143.12 36.8615C142.761 36.3235 142.395 35.7897 142.025 35.2601L143.126 34.4895C143.502 35.0267 143.872 35.5683 144.238 36.1143L143.12 36.8615ZM140.897 33.6827C140.514 33.1592 140.127 32.6402 139.736 32.1256L140.805 31.3116C141.202 31.8331 141.594 32.3592 141.982 32.89L140.897 33.6827ZM138.547 30.5941C138.144 30.0851 137.737 29.5807 137.326 29.0812L138.364 28.2275C138.78 28.7334 139.192 29.2442 139.6 29.7599L138.547 30.5941ZM136.08 27.5936C135.658 27.0995 135.233 26.6104 134.806 26.1264L135.813 25.2363C136.246 25.726 136.676 26.2211 137.102 26.7213L136.08 27.5936ZM133.506 24.6818C133.068 24.2028 132.627 23.7292 132.184 23.2611L133.16 22.3373C133.608 22.8108 134.054 23.2899 134.498 23.7745L133.506 24.6818ZM130.835 21.8585C130.381 21.3948 129.926 20.9369 129.469 20.4848L130.415 19.5296C130.876 19.9867 131.337 20.4497 131.795 20.9187L130.835 21.8585ZM128.072 19.1243C127.602 18.6738 127.132 18.2296 126.66 17.7919L127.575 16.8071C128.051 17.2496 128.527 17.6986 129.003 18.154L128.072 19.1243ZM125.226 16.4807C124.74 16.0431 124.254 15.6125 123.769 15.1891L124.652 14.1762C125.143 14.6042 125.634 15.0394 126.126 15.4817L125.226 16.4807ZM122.301 13.9285C121.799 13.5046 121.299 13.0885 120.8 12.6803L121.652 11.6403C122.156 12.0529 122.662 12.4735 123.168 12.9021L122.301 13.9285ZM119.287 11.4607C118.776 11.0558 118.267 10.6596 117.762 10.2723L118.58 9.20576C119.091 9.59745 119.605 9.99804 120.121 10.4074L119.287 11.4607ZM116.202 9.09577C115.673 8.70426 115.149 8.32294 114.63 7.95202L115.412 6.85855C115.937 7.23393 116.467 7.61975 117.002 8.0158L116.202 9.09577ZM113.049 6.8426C112.504 6.46741 111.965 6.10447 111.435 5.75405L112.176 4.63261C112.713 4.98778 113.259 5.35547 113.811 5.73542L113.049 6.8426ZM109.799 4.69692C109.527 4.52539 109.258 4.35745 108.992 4.19313L109.697 3.0491C109.968 3.21597 110.241 3.38646 110.517 3.56053L109.799 4.69692Z" fill="#3F3F3F"/>
</svg>
