<svg viewBox="0 0 100 100" xmlns="http://www.w3.org/2000/svg"><path d="M75.5,66Q69,82,48.5,84.5Q28,87,20.5,68.5Q13,50,23,35Q33,20,50,20.5Q67,21,74.5,35.5Q82,50,75.5,66Z" stroke="#e1b4e6" stroke-width="1" fill="#fdf8fc"/><path d="M76,64.5Q67,79,48.5,82Q30,85,18.5,67.5Q7,50,16,29Q25,8,45,16Q65,24,75,37Q85,50,76,64.5Z" stroke="#e1b4e6" stroke-width="1" fill="#fcf5fc"/><path d="M80,71Q74,92,52.5,87Q31,82,22.5,66Q14,50,20,29Q26,8,48,11.5Q70,15,78,32.5Q86,50,80,71Z" stroke="#e1b4e6" stroke-width="1" fill="#fbf2fc"/><path d="M79.5,67Q69,84,52,80Q35,76,20.5,63Q6,50,19.5,35.5Q33,21,52.5,16Q72,11,81,30.5Q90,50,79.5,67Z" stroke="#e1b4e6" stroke-width="1" fill="#faeffc"/><path d="M84,66.5Q69,83,47,88Q25,93,16,71.5Q7,50,18,32Q29,14,47.5,18Q66,22,82.5,36Q99,50,84,66.5Z" stroke="#e1b4e6" stroke-width="1" fill="#f9ecfc"/><path d="M76.5,66Q69,82,51,80.5Q33,79,19,64.5Q5,50,18,33.5Q31,17,48.5,20Q66,23,75,36.5Q84,50,76.5,66Z" stroke="#e1b4e6" stroke-width="1" fill="#f8e9fc"/><path d="M86.5,71Q74,92,53.5,86Q33,80,17,65Q1,50,13.5,29.5Q26,9,46,15.5Q66,22,82.5,36Q99,50,86.5,71Z" stroke="#e1b4e6" stroke-width="1" fill="#f7e6fc"/><path d="M77,68.5Q71,87,51.5,84.5Q32,82,17.5,66Q3,50,14,28.5Q25,7,47,12Q69,17,76,33.5Q83,50,77,68.5Z" stroke="#e1b4e6" stroke-width="1" fill="#f6e3fc"/></svg>