<svg version="1.1" viewBox="0.0 0.0 1122.5196850393702 793.7007874015748" fill="none" stroke="none" stroke-linecap="square" stroke-miterlimit="10" xmlns:xlink="http://www.w3.org/1999/xlink" xmlns="http://www.w3.org/2000/svg"><clipPath id="p_1.0"><path d="m0 0l1122.5197 0l0 793.7008l-1122.5197 0l0 -793.7008z" clip-rule="nonzero"/></clipPath><g clip-path="url(#p_1.0)"><path fill="#000000" fill-opacity="0.0" d="m0 0l1122.5197 0l0 793.7008l-1122.5197 0z" fill-rule="evenodd"/><path fill="#cc819d" d="m820.2932 499.58374l-4.2666626 -0.4666748l-3.4666748 -1.3999939l-2.7333374 -2.1333313l-1.9332886 -2.7333374l-1.2000122 -3.1333313l-0.4666748 -3.3333435l0.333313 -3.3333435l1.1333618 -3.1333313l1.8666382 -2.7999878l2.666687 -2.2000122l3.4666748 -1.5333252l4.200012 -0.6000061l3.8666382 0l4.200012 0.4666748l3.5333252 1.3999939l2.666687 2.2000122l2.0 2.7333374l1.2000122 3.0666504l0.39996338 3.3333435l-0.333313 3.333313l-1.0666504 3.1333618l-1.9333496 2.7999878l-2.666687 2.2000122l-3.3999634 1.5333252l-4.2667236 0.6000061l-3.7999878 0l0 0zm77.466675 -177.40002l-3.5999756 -0.2666626l-3.333374 -1.0666504l-3.0 -1.7333374l-2.3999634 -2.5333252l-1.6000366 -3.2000122l-0.5999756 -3.933319l0.4666748 -4.0l1.5333252 -3.266693l2.333313 -2.5333252l2.9333496 -1.7999878l3.333313 -1.1333313l3.5333862 -0.4000244l3.5999756 0.3333435l3.333313 1.0l3.0 1.8000183l2.4000244 2.4666443l1.5999756 3.2000122l0.6000366 3.933319l-0.4666748 4.0l-1.5333252 3.2666626l-2.333374 2.5333557l-2.9332886 1.7999878l-3.333374 1.1333313l-3.5333252 0.3999939zm100.466675 67.33334l-3.4666748 -0.6666565l-2.7333374 -2.1333313l-1.0666504 -3.600006l-0.06665039 -3.600006l1.0 -3.600006l2.5999756 -2.1999817l3.4666748 -0.7333374l3.4666748 0.6666565l2.666626 2.1333313l1.1333618 3.600006l0.06665039 3.5333252l-1.0 3.600006l-2.666626 2.2000122l-3.4000244 0.7999878zm-87.26666 51.13333l-3.4666748 -0.6666565l-2.666687 -2.1333313l-1.1333008 -3.600006l1.0 -3.600006l2.666687 -2.1999817l3.3999634 -0.7333374l3.4666748 0.6666565l2.666687 2.1333313l1.1333008 3.600006l-1.0 3.600006l-2.5999756 2.1999817l-3.4666748 0.7333374zm103.0 -129.86667l-3.5333252 -0.19998169l-3.0 -1.7333374l-1.9333496 -2.7333374l-0.2666626 -3.3333435l1.8666382 -3.2666626l3.8000488 -3.600006l3.4666748 -1.8666687l3.5333252 0.1333313l3.0 1.7333374l1.9332886 2.8000183l0.2666626 3.2666626l-1.9332886 3.2666626l-3.7333374 3.6666565l0 0l-3.4666748 1.8666687zm35.399963 139.93335l-3.4666748 -0.666687l-2.666626 -2.1333313l-1.1333008 -3.600006l-0.06665039 -3.5999756l1.0 -3.600006l2.666626 -2.2000122l3.4000244 -0.7333374l3.4666748 0.666687l2.7332764 2.1333313l1.0666504 3.600006l0.06665039 3.5333252l-1.0 3.600006l-2.5999756 2.1999817l-3.4666748 0.8000183zm-333.59998 -16.533356l-3.4666748 -0.6666565l-2.666626 -2.1333313l-1.1333618 -3.600006l1.0 -3.600006l2.666687 -2.1999817l3.3999634 -0.7333374l3.4666748 0.6666565l2.666687 2.1333313l1.1333008 3.600006l-1.0 3.600006l-2.5999756 2.2000122l-3.4666748 0.7333069zm-79.79999 38.600006l-3.4666748 -0.6666565l-2.666687 -2.1333313l-1.1333008 -3.600006l1.0 -3.600006l2.5999756 -2.1999817l3.4666748 -0.7333374l3.4666748 0.6666565l2.666687 2.1333313l1.1333008 3.5333252l-1.0 3.600006l-2.5999756 2.2000122l-3.4666748 0.7999878zm236.86664 -83.26666l-3.4666138 -0.6666565l-2.666687 -2.1333313l-1.1333618 -3.600006l1.0 -3.600006l2.666687 -2.2000122l3.4000244 -0.7333069l3.4666138 0.6666565l2.666687 2.1333313l1.1333618 3.5333252l-1.0 3.600006l-2.6000366 2.2000122l-3.4666748 0.7999878zm-78.46661 34.799988l-3.4666748 -0.7333069l-2.7333374 -2.066681l-1.0667114 -3.600006l1.0 -3.600006l2.6000366 -2.1999817l3.4666748 -0.8000183l3.4666748 0.666687l2.666626 2.1333313l1.1333618 3.600006l-1.0 3.5999756l-2.666687 2.2000122l-3.3999634 0.7999878z" fill-rule="evenodd"/></g></svg>