<svg version="1.1" viewBox="0.0 0.0 1122.5196850393702 793.7007874015748" fill="none" stroke="none" stroke-linecap="square" stroke-miterlimit="10" xmlns:xlink="http://www.w3.org/1999/xlink" xmlns="http://www.w3.org/2000/svg"><clipPath id="p_1.0"><path d="m0 0l1122.5197 0l0 793.7008l-1122.5197 0l0 -793.7008z" clip-rule="nonzero"/></clipPath><g clip-path="url(#p_1.0)"><path fill="#000000" fill-opacity="0.0" d="m0 0l1122.5197 0l0 793.7008l-1122.5197 0z" fill-rule="evenodd"/><path fill="#000000" fill-opacity="0.0" d="m472.9933 287.31705l176.53278 0l0 219.06564l-176.53278 0z" fill-rule="evenodd"/><path fill="#cc819d" d="m579.1265 348.4504l-0.066711426 -4.8666687l-0.39996338 -4.8000183l-0.7999878 -4.8666687l-1.2000122 -4.7333374l-1.5333252 -4.6666565l-1.7999878 -4.466675l-2.1333618 -4.2666626l-2.4000244 -4.0666504l-0.06665039 -0.06668091l-2.3999634 -4.1333313l-3.0667114 -3.7999878l-3.5333252 -3.4000244l-3.9333496 -3.0l-3.0 -1.7999878l0 49.93335l-0.333313 4.1999817l-1.4666748 3.6666565l-2.7999878 3.0l-3.7999878 1.0l-5.0666504 -0.3999939l-5.0667114 -0.9333191l-4.0 -0.7333374l-9.866638 -0.6000061l-4.799988 -0.7999878l-4.6000366 -1.8000183l-3.8666687 -2.7333374l-3.0666504 -3.1999817l-2.2000122 -3.6666565l-1.4666443 -3.8000183l-0.666687 -4.0l0.06668091 -4.0666504l0.8666687 -3.8666687l1.6000061 -3.7333374l2.333313 -3.3333435l3.066681 -2.933319l3.7333374 -2.3333435l4.3999634 -1.6000061l4.2666626 -0.7999878l4.866699 -0.3333435l5.2666626 0.2000122l5.333313 0.7333374l5.2666626 1.333313l0.2000122 0.8666687l0.2666626 0.8666687l0.33337402 0.8000183l1.5333252 2.933319l1.8666382 3.600006l2.0666504 4.1333313l2.0667114 4.466675l1.7999878 4.6666565l1.2666626 4.7333374l0.5999756 4.466675l0 -49.93335l-1.2666626 -0.7999878l-4.5999756 -2.2000122l-4.866699 -1.7999878l-5.0 -1.4666748l-5.0666504 -1.0l-5.133301 -0.6666565l-5.0667114 -0.26669312l-5.0 0.13336182l-4.866638 0.4666443l-4.600006 0.8666687l-4.8666687 1.3999939l-4.533325 1.8000183l-4.1333313 2.1999817l-3.7333374 2.5333557l-3.399994 2.8666687l-3.066681 3.1333313l-2.6666565 3.399994l-2.2666626 3.600006l-1.8666687 3.8666687l-1.5333252 4.0l-1.1333618 4.1333313l-0.7333069 4.2666626l-0.39990234 4.333313l0 4.4000244l0.39990234 4.399994l0.7999878 4.466675l1.2000122 4.333313l1.5333252 4.3333435l2.0 4.2666626l2.3333435 4.066681l2.7999878 3.933319l3.399994 4.066681l3.6666565 3.399994l3.9333496 2.8666687l4.1333313 2.333313l4.3333435 1.9333496l4.533325 1.4666748l4.733307 1.1999817l5.0 0.8666687l5.133362 0.6000061l10.133301 1.0666504l5.200012 0.3333435l5.200012 0.1333313l5.133362 -0.333313l5.0666504 -0.8666687l4.799988 -1.4666748l4.5999756 -2.3333435l3.8000488 -2.7999878l3.1999512 -3.2000122l2.7333374 -3.5333252l2.2000122 -3.9333496l1.7333374 -4.1333313l1.2000122 -4.4666443l0.06665039 -0.4000244l0.7333374 -4.1999817l0.4000244 -4.6666565zm0.7333374 108.93332l-0.4000244 -5.6666565l-0.8666382 -5.5333557l-1.333374 -5.333313l-0.5333252 -1.5333557l-1.2666626 -3.4666443l-2.2666626 -4.399994l-2.8666382 -3.666687l-4.0 -3.4666748l-4.7333374 -2.5999756l-5.0667114 -2.0l-5.199951 -1.666687l-0.4666748 -0.1333313l0 43.466675l-0.4000244 5.066681l-1.8666382 4.799988l-3.7333374 4.200012l-4.7333374 3.333313l-5.0 2.2000122l-4.666687 1.0l-4.533325 0.19998169l-4.333313 -0.6666565l-4.0 -1.3333435l-3.7333374 -2.0666504l-3.4000244 -2.600006l-3.0 -3.0666504l-2.5333252 -3.5333557l-2.0 -3.8666687l-1.5333252 -4.0666504l-0.9333496 -4.3333435l-0.2666626 -4.399994l0.3333435 -4.399994l0.19998169 -1.1333313l0.2666626 -1.1333313l0.26669312 -1.0666809l0.2666626 -1.0666504l3.6666565 -2.1333618l4.466675 -1.333313l4.9333496 -0.666687l5.333313 0l5.333313 0.5333557l5.2666626 0.9333191l4.9333496 1.3333435l4.2666626 1.5333252l3.5333252 1.7333374l3.6000366 3.0l2.3999634 3.7333374l1.2666626 4.399994l0.33337402 4.8666687l0 -43.466675l-4.6000366 -1.4666443l-5.533325 -1.4000244l-5.666687 -0.7333374l-5.5999756 -0.1333313l-5.666687 0.3333435l-5.666626 0.8666687l-4.666687 0.9333191l-4.933319 1.3333435l-4.8000183 1.7333374l-4.533325 2.2666626l-4.0 2.8000183l-3.2000122 3.4666443l-2.2666626 4.200012l-0.9333191 4.933319l-0.06668091 0.3333435l0.1333313 0.2666626l0 0.3333435l-0.5999756 1.5333252l-0.666687 1.6666565l-0.6000061 1.666687l-0.5333252 1.7333374l-1.1999817 4.799988l-0.666687 4.7333374l-0.19998169 4.6666565l0.2666626 4.600006l0.7333374 4.466675l1.1333313 4.333313l1.5333252 4.1333313l1.8666687 4.0l2.2666626 3.8000183l2.600006 3.600006l2.933319 3.2666626l3.2000122 3.0666504l3.4666748 2.8000183l3.733307 2.4666443l3.933319 2.1333618l4.200012 1.7333069l4.4000244 1.4000244l4.533325 1.0666504l4.666687 0.5333252l4.799988 0.2000122l4.9333496 -0.3333435l4.533325 -0.7999878l4.5999756 -1.3999939l4.6000366 -1.9333496l4.466614 -2.399994l4.2666626 -2.7999878l3.9333496 -3.2666626l3.6000366 -3.5333557l3.1333008 -3.7999878l2.4666748 -3.9333496l0.06665039 -0.1333313l1.9333496 -4.2666626l1.2666626 -4.466675l0.8666992 -4.933319l0.46661377 -5.399994l0.066711426 -5.600006zm69.666626 -51.333344l-0.13330078 -4.5999756l-0.666687 -4.7333374l-1.333313 -4.666687l-1.8666992 -4.399994l-0.666626 -1.2666626l-1.7333374 -2.8666687l-2.7999878 -3.600006l-3.333374 -3.0l-3.7333374 -2.1999817l-4.0666504 -1.2666626l-0.5999756 0l0 27.866638l-0.066711426 4.200012l-2.4666748 2.600006l-4.2666626 0.6000061l-5.199951 -0.7333374l-5.333374 -1.5333252l-4.7333374 -1.7333374l-3.2666626 -1.3333435l-2.5999756 -0.8666687l-1.5333252 -0.4666748l-0.4666748 -0.9333191l0.5333252 -2.2666626l0.9333496 -2.8666687l1.2666626 -2.666687l1.7333374 -2.333313l2.333313 -1.8000183l1.4000244 -0.5333252l2.2666626 -0.7333374l2.8666382 -0.7999878l3.1333618 -0.7333374l0.666626 1.7333374l1.0 1.5333252l1.333374 1.3333435l1.5999756 1.0666504l3.4000244 2.2000122l3.2666626 3.2000122l2.2000122 3.8666382l0 -27.866638l-3.8000488 -0.2000122l-4.866638 -1.6666565l-5.333313 -0.8666687l-5.533386 -0.06668091l-5.199951 0.5333252l-4.466675 0.9333496l-3.8666992 1.5333252l-3.5999756 2.2000122l-3.2000122 2.7333374l-2.8666382 3.2666626l-2.4666748 3.600006l-1.9333496 3.8666382l-1.4000244 4.066681l-0.8666382 4.1333313l-0.2000122 4.1333313l0.4666748 4.066681l1.2000122 3.7999878l2.0666504 3.5333252l2.7999878 3.1333313l3.7333374 2.600006l3.7333374 1.9333496l4.200012 1.9333191l4.4000244 1.7333374l4.666626 1.5333252l4.799988 1.2000122l4.866699 0.9333191l4.866638 0.4666748l4.7333374 0l4.6000366 -0.6000061l4.333313 -1.1999817l4.0 -1.8666687l3.5333252 -2.666687l3.0666504 -3.4666443l2.5333862 -4.4000244l1.333313 -3.933319l0.2000122 -1.6666565l0.39996338 -2.666687z" fill-rule="evenodd"/></g></svg>