<svg width="356" height="158" viewBox="0 0 356 158" fill="none" xmlns="http://www.w3.org/2000/svg">
<g clip-path="url(#clip0_1303_2732)">
<path d="M158.153 139.741C110.297 131.218 53.8843 122.078 21.7404 89.6062C8.63286 76.369 2.40771 58.9214 11.1461 42.8602C21.3281 24.0159 46.2157 18.7991 69.763 17.2998C125.892 13.7363 183.298 16.4679 238.847 23.4614C278.325 28.4522 358.13 38.0233 339.197 85.0774C331.992 102.977 312.299 117.498 293.146 127.634C273.347 137.955 251.269 145.19 228.085 148.953C179.908 157.034 128.586 150.534 85.3581 131.885C49.5796 116.481 -5.22228 80.8567 20.3872 44.2772C45.6744 8.11895 109.099 5.02786 154.955 5.7878C183.424 6.27452 211.79 8.67927 239.749 12.9763C265.385 16.9608 293.405 21.3767 316.603 31.1326C337.019 39.6972 349.727 54.9472 348.206 73.6373C346.685 92.3275 330.871 107.721 313.704 119.634C303.945 126.224 293.726 132.368 283.093 138.037C279.395 140.09 282.913 144.937 286.65 142.884C323.216 122.797 372.745 90.6126 350.153 50.367C339.674 31.7282 315.547 23.2456 292.437 17.6078C262.812 10.4366 232.422 5.44869 201.651 2.70699C171.234 -0.0143785 140.031 -1.15428 109.498 1.52602C83.7212 3.79555 57.0936 9.08426 36.1626 21.8901C18.6086 32.6318 4.70186 49.1039 6.84136 67.4039C9.22573 87.6653 28.2233 104.897 46.7958 117.611C86.1056 144.505 139.168 158.872 190.824 157.959C241.296 157.066 294.758 141.661 328.191 110.504C344.081 95.6753 354.895 75.7426 344.52 56.6109C334.854 38.7832 310.687 30.4342 288.557 25.6898C259.378 19.3741 228.729 16.1906 198.712 13.6952C167.201 11.0706 135.517 10.004 103.84 10.5014C77.6894 10.9122 45.3393 9.7415 23.0165 22.5165C6.15826 32.1698 -2.14193 48.7136 0.474437 65.0008C3.41302 83.2495 19.3947 98.3762 37.1293 109.231C59.2073 122.735 85.6158 130.735 112.205 136.65C126.769 139.885 141.527 142.513 156.27 145.143C160.691 145.933 162.572 140.532 158.153 139.741Z" fill="#D36F4D"/>
</g>
<defs>
<clipPath id="clip0_1303_2732">
<rect width="355.843" height="158" fill="white"/>
</clipPath>
</defs>
</svg>
