<svg version="1.1" viewBox="0.0 0.0 1122.5196850393702 793.7007874015748" fill="none" stroke="none" stroke-linecap="square" stroke-miterlimit="10" xmlns:xlink="http://www.w3.org/1999/xlink" xmlns="http://www.w3.org/2000/svg"><clipPath id="p_1.0"><path d="m0 0l1122.5197 0l0 793.7008l-1122.5197 0l0 -793.7008z" clip-rule="nonzero"/></clipPath><g clip-path="url(#p_1.0)"><path fill="#000000" fill-opacity="0.0" d="m0 0l1122.5197 0l0 793.7008l-1122.5197 0z" fill-rule="evenodd"/><path fill="#cc819d" d="m528.7265 550.11707l-5.333313 -0.06665039l-5.2666626 -0.13336182l-5.2666626 -0.2666626l-5.266693 -0.4000244l-5.1999817 -0.5999756l-5.266693 -0.666687l-5.1999817 -0.8666382l-5.200012 -1.0l-4.0667725 -0.9333496l-4.399872 -1.0l-4.600006 -1.1333008l-4.8000183 -1.2000122l-4.933319 -1.333313l-4.9333496 -1.5333862l-4.933319 -1.5999756l-4.9333496 -1.666687l-4.733307 -1.8666382l-4.600006 -2.0l-4.3333435 -2.0666504l-4.0666504 -2.2666626l-3.666687 -2.4000244l-3.2666626 -2.5333252l-5.0666504 -5.466675l-2.666687 -6.066681l-0.333313 -3.2666626l0.4666443 -3.399994l3.4000244 -7.066681l5.933319 -4.733307l7.799988 -2.4666748l4.3333435 -0.5333252l4.6666565 -0.1333313l4.7998962 0l5.000122 0.2666626l10.0 0.5999756l5.0 0.26669312l4.799988 0.06665039l4.666687 -0.19998169l4.399994 -0.5333557l-2.8000183 -4.533325l-3.4666443 -3.933319l-4.0 -3.4000244l-4.4000244 -2.933319l-4.799988 -2.5333252l-5.0 -2.2000122l-5.1333313 -1.9333191l-5.200012 -1.666687l-5.1333313 -1.4666748l-5.1999817 -1.5333252l-5.200012 -1.6667786l-5.0666504 -1.8666687l-4.933441 -2.0665588l-4.666565 -2.4666443l-4.399994 -3.0l-4.0 -3.4666748l-3.666687 -3.733429l-3.0 -3.4665833l-2.399994 -3.1999817l-3.2000122 -5.600006l-1.1333313 -4.7333374l0.1333313 -2.0l2.8665771 -4.8666687l3.733429 -2.3333435l5.0 -1.6666565l6.0 -1.1333313l6.9333496 -0.6666565l7.4666443 -0.3333435l3.9333496 0l4.0 0.06668091l4.0666504 0.06665039l4.1333313 0.1333313l4.133362 0.2000122l4.0666504 0.19998169l4.066681 0.26669312l7.8666687 0.4666443l3.7999878 0.2666626l7.1333313 0.4000244l6.3333435 0.19998169l2.7999878 0l2.600006 0l4.1999817 -0.3999939l5.066681 -3.066681l1.3999939 -5.1999817l0 -3.2666626l-0.333313 -3.6667786l-0.666687 -4.066559l-1.0 -4.399994l-1.333313 -4.7333374l-1.5333557 -4.9333496l-1.7333374 -5.1999817l-1.9333191 -5.399994l-2.1333313 -5.5333557l-2.2000122 -5.6666565l-2.333313 -5.7333374l-2.3333435 -5.799988l-2.399994 -5.8000183l-2.399994 -5.7333374l-2.3333435 -5.6666565l-2.2666626 -5.600006l-2.1333313 -5.399994l-2.066681 -5.2666626l-1.7999878 -5.0l-1.666687 -4.799988l-1.3999939 -4.466675l-1.1333313 -4.200012l-1.3333435 -7.1333313l-0.19998169 -4.8666687l0 -5.0l0.2666626 -4.933319l0.6000061 -4.8666687l1.0666504 -4.7334595l1.4666748 -4.533203l2.066681 -4.2666626l2.5333252 -3.866684l3.2666626 -3.5333252l3.6666565 -2.800003l4.0 -2.1333313l4.2666626 -1.4666748l4.5332336 -0.8666687l4.600128 -0.19999695l4.6666565 0.40000916l4.6666565 0.9333191l4.533325 1.466568l4.3333435 1.9334412l4.0666504 2.4666595l3.7333374 2.866562l3.666687 3.5333405l3.333313 3.8667603l2.9333496 4.200012l2.5999756 4.399994l2.2666626 4.6666565l2.0 4.7333374l1.666687 4.9333496l1.5333252 5.0l1.2000122 5.0666504l1.0666504 5.1333313l0.9333496 5.066681l0.7999878 5.1333313l0.7999878 5.066681l0.7333374 5.1333313l0.8000488 5.1333313l0.7999878 5.0666504l1.0 5.1333313l1.0666504 5.0l1.2666626 5.0l1.4666748 4.9333496l1.8666382 4.8666687l2.333374 4.6666565l2.7333374 4.466675l3.2666626 4.0666504l3.666626 3.399994l4.0667114 2.666687l4.466675 1.6666565l4.866638 0.6000061l4.9333496 -0.6000061l4.533325 -1.6666565l3.999878 -2.666687l3.666809 -3.399994l3.2666626 -4.0666504l2.7999878 -4.5333557l2.5333252 -4.799988l2.1333618 -5.0l1.7999878 -4.933319l1.666626 -5.0l1.9333496 -5.0l2.0666504 -5.0l2.4666748 -4.7333374l2.7333374 -4.399994l3.2000122 -3.9333496l3.5999756 -3.2666626l4.133362 -2.5333252l4.7333374 -1.6000061l4.666687 -0.5333252l4.466614 0.5333252l4.2666626 1.4666748l4.0 2.1999817l3.666687 2.9333496l3.2666626 3.5333252l2.7999878 3.933319l2.2000122 4.3333435l1.6000366 4.533325l0.9332886 4.7333374l0.2666626 5.200012l-0.333313 5.1999817l-0.8666382 5.1333313l-1.333374 5.133362l-1.666626 5.0l-2.0 4.933319l-2.2000122 4.933319l-2.4000244 4.8000183l-2.4666748 4.6666565l-2.4666748 4.7333374l-2.5333252 4.7333374l-2.3999634 4.7333374l-2.2000122 4.8666687l-2.0 4.933319l-1.666687 4.9333496l-1.333313 5.0666504l-0.8666992 5.200012l-0.333313 5.1999817l4.133362 1.1999207l4.0666504 -0.066589355l4.0 -1.1333313l3.9333496 -2.0l3.8666382 -2.5999756l3.8666992 -3.0l3.8666382 -3.266693l3.9333496 -3.1999817l3.9333496 -2.9333496l4.0666504 -2.4666443l4.333313 -1.8666687l4.6000366 -1.0666809l4.666626 -0.3999939l4.666687 0.3333435l4.666687 0.93322754l4.533325 1.5333252l4.333313 2.0667725l4.0 2.6666565l3.5999756 3.1333313l3.5333862 3.9333496l3.0 4.399994l2.4666138 4.7333374l1.9333496 5.0l1.4666748 5.1333313l0.9333496 5.3333435l0.4666748 5.399872l0 5.333435l-0.4000244 5.0l-0.7999878 4.9333496l-1.0666504 4.799988l-1.4666748 4.7333374l-1.7333374 4.600006l-2.0 4.533325l-2.333374 4.399994l-2.5333252 4.266693l-2.8666382 4.1333313l-3.0 4.0l-3.2666626 3.7999878l-3.5333252 3.7333374l-3.6000366 3.5333252l-3.8666382 3.3333435l-4.0 3.2000122l-4.133362 3.0l-4.200012 2.8666382l-4.3999634 2.6000366l-4.466675 2.3999634l-4.533325 2.2666626l-4.799988 2.1333618l-4.9333496 1.9333496l-4.9333496 1.7332764l-5.0666504 1.666687l-5.0 1.4000244l-5.133362 1.333313l-5.133301 1.2000122l-5.200012 1.0666504l-5.200012 0.9333496l-5.2666626 0.7999878l-5.200012 0.7999878l-5.333313 0.666687l-5.2666626 0.5999756l-5.333313 0.4666748l-5.2667847 0.5333252l-5.333252 0.4000244l-5.333435 0.4000244l-5.2665405 0.39996338l-5.333374 0.333313l-5.2667236 0.33337402l-5.2666016 0.39996338l-5.333313 0.2666626l-5.2666626 0.33337402l-5.333313 0.2000122l-5.2666626 0.19995117l-5.333374 0.13336182l-5.2666626 0z" fill-rule="evenodd"/></g></svg>