<svg version="1.1" viewBox="0.0 0.0 1122.5196850393702 793.7007874015748" fill="none" stroke="none" stroke-linecap="square" stroke-miterlimit="10" xmlns:xlink="http://www.w3.org/1999/xlink" xmlns="http://www.w3.org/2000/svg"><clipPath id="p_1.0"><path d="m0 0l1122.5197 0l0 793.7008l-1122.5197 0l0 -793.7008z" clip-rule="nonzero"/></clipPath><g clip-path="url(#p_1.0)"><path fill="#000000" fill-opacity="0.0" d="m0 0l1122.5197 0l0 793.7008l-1122.5197 0z" fill-rule="evenodd"/><path fill="#000000" fill-opacity="0.0" d="m445.9599 234.85039l230.59845 0l0 324.0l-230.59845 0z" fill-rule="evenodd"/><path fill="#cc819d" d="m676.4266 481.51706l-0.2000122 -5.3333435l-1.2000122 -5.333313l-2.0666504 -5.3333435l-0.8666992 -1.3333435l-1.7332764 -2.6666565l-3.0667114 -2.6666565l-3.4666748 -2.666687l-4.0 -1.333313l-4.3999634 -1.3333435l-1.4000244 0l-1.4666748 1.3333435l-6.466675 0l-3.3999634 1.333313l-3.4000244 0l-3.3999634 1.3333435l-1.4000244 1.3333435l-1.333313 0l-1.4000244 1.333313l-1.5333252 0l-7.0666504 4.0l2.3999634 -4.0l2.4000244 -4.0l1.9333496 -4.0l0.5999756 -1.333313l2.666687 -5.3333435l2.666626 -4.0l2.9333496 -6.6666565l0.2666626 0l1.5333252 -2.666687l1.5333252 -4.0000916l1.666687 -3.9999084l1.666687 -5.333313l1.666626 -5.3333435l1.7333374 -5.3333435l1.8000488 -6.6666565l1.8666382 -6.6666565l1.8666992 -6.666687l0.73327637 -5.333313l-0.46661377 -5.3333435l-1.666687 -5.3333435l-2.7999878 -4.0l-3.7333374 -4.0l-6.666687 -2.6666565l-3.5999756 -1.3333435l-9.200012 0l-5.2666626 2.666687l-5.0666504 2.6666565l-4.800049 2.6666565l-4.533325 2.666687l-4.2667847 2.6666565l-4.0665283 4.0l-0.666687 0l-1.7999878 1.3333435l-4.4000244 4.0l16.666687 -22.666687l21.466675 -29.333313l0.2000122 0l11.599976 -17.333344l16.0 -24.0l2.5333252 -5.3333435l1.1333618 -5.333313l-0.2000122 -6.666687l-1.7333374 -5.333313l-3.0 -4.0l-4.0666504 -4.0l-4.9333496 -2.666687l-5.533325 -1.3333282l-0.7999878 -1.3333282l-5.0666504 0l-2.666687 1.3333282l-2.7999878 0l-2.8000488 1.3333282l-3.0 1.3333435l-3.5333252 1.3333435l-4.0666504 2.6666565l-4.666687 2.6666565l-5.2666626 2.666687l-5.799988 4.0l-0.4666748 0l-5.333313 4.0l-4.9333496 2.6666565l-4.866638 4.0l-4.7333374 2.6666565l-4.6000366 4.0l-4.466614 2.666687l-4.333374 2.6666565l-4.2666626 4.0l-4.133301 2.6666565l-4.0667114 2.666687l-3.8666382 2.6666565l-3.7999878 2.6666565l-3.666687 2.666687l-3.5999756 2.6666565l8.733337 -16.0l15.933289 -29.333344l1.0667114 -1.333313l0.7999878 -2.666687l0.5333252 -2.6666565l0.333313 -2.6666565l0.06665039 -2.666687l-0.2666626 -2.6666565l-1.5333252 -5.3333282l-2.7999878 -5.3333435l-3.5333252 -4.0l-4.2666626 -2.6666565l-5.0 -1.3333435l-14.733337 0l-2.5999756 1.3333435l-2.9333496 0l-3.4000244 1.3333282l-3.7999878 1.3333282l-4.133362 1.3333435l-4.5999756 1.3333282l-4.933319 2.6666718l-5.4000244 1.3333282l-5.733307 2.6666718l-6.200012 2.6666565l-6.533325 2.6666718l-7.0 2.6666565l-7.3333435 2.666687l-7.7333374 4.0l-4.600006 2.6666565l-3.6666565 2.6666565l-2.8666687 4.0l-1.8666687 5.3333435l-0.7999878 4.0l0.2666626 5.3333435l1.4666748 5.333313l2.7333374 4.0l3.6666565 4.0l4.3333435 4.0l4.933319 1.3333435l11.799988 0l2.2000122 -1.3333435l4.3333435 -1.333313l4.1999817 -2.666687l4.0 -1.333313l3.9333496 -1.3333435l-0.93344116 1.3333435l-34.399902 50.666656l-0.1333313 0l-0.1333313 1.3333435l-2.066681 2.6666565l-2.2666626 5.3333435l-2.5333252 4.0l-2.7333374 6.6666565l-3.0 6.6666565l-2.3333435 6.666687l-1.1999817 4.0l-0.06668091 5.333313l1.0666809 5.3333435l2.266571 4.0l3.333313 2.666565l1.8667908 1.333435l2.1333313 2.6666565l2.399994 1.3333435l2.7333374 1.3333435l2.1333313 0l2.2666626 1.3332214l7.466675 0l3.0 -1.3332214l3.1333313 0l3.0666504 -2.666687l2.2000122 0l2.8666687 -2.6666565l3.4666748 -1.333435l4.1999817 -2.666565l4.8000183 -4.0l5.399994 -4.0l6.1333313 -4.0l2.1999817 -1.3333435l2.2666626 -1.333313l2.2666016 -1.3333435l0.53338623 -1.3333435l1.0667114 0l2.0666504 -2.6666565l2.5999756 -1.3333435l3.2000122 -2.6666565l3.7999878 -2.6666565l4.4000244 -2.666687l5.0 -4.0l5.533325 -4.0l6.133362 -4.0l-83.66669 113.33334l-2.4666748 4.0l-1.4667664 5.3333435l-0.46655273 4.0l0.6000061 5.333313l1.6666565 5.3333435l2.933319 4.0l3.4000244 4.0l3.933319 2.6666565l4.399994 2.666687l8.066681 0l3.333313 -1.3333435l3.4666748 0l3.666687 -1.3333435l0.6666565 -1.333313l2.0666504 0l3.1333313 -1.3333435l3.5333557 -2.6666565l4.0 -2.666687l4.3999634 -2.6666565l4.866699 -2.6666565l5.333313 -4.0l0.2666626 0l4.4000244 -4.0l8.533325 -5.3333435l4.200012 -4.0l4.200012 -2.6666565l4.199951 -4.0l8.266724 -5.3333435l4.133301 -4.0l4.0666504 -2.6666565l4.133362 -4.0l4.0666504 -2.666687l-3.666687 6.666687l-3.4666138 6.6666565l-3.1333618 6.6666565l-2.9333496 5.3333435l-2.666626 6.6666565l-2.4000244 4.0l-2.1333008 5.3333435l-1.8666992 4.0l-1.666687 4.0l-1.333313 2.6666565l-1.1333008 2.666687l-0.666687 2.6666565l-0.4666748 1.3333435l-0.2666626 2.666687l0.5333252 8.0l1.2666626 4.0l1.9333496 4.0l2.5333252 4.0l3.2666626 1.333313l3.9333496 2.666687l4.666626 1.333313l10.466675 0l1.7333374 -1.333313l1.7999878 0l2.9333496 -1.333374l3.333374 0l3.666626 -2.666626l4.0666504 -1.333374l1.9333496 0l0.6000366 -1.333313l23.133179 -13.333313l-0.7998657 2.666626l-0.7999878 2.666687l-0.8666992 4.0l-0.8666382 2.666687l-0.7999878 5.333313l0.39996338 5.333313l1.4000244 4.0l2.4666748 4.0l3.333313 4.0l4.133362 2.666687l4.866638 2.666687l4.533325 0l1.5333252 1.333313l4.866699 -1.333313l4.533325 -1.333374l4.133301 -2.666626l3.5333862 -2.666687l2.7998657 -4.0l1.9334106 -5.333313l2.0667114 -8.0l1.8666382 -6.666687l1.7333374 -6.666687l0.7333374 -2.666626l0.7999878 -2.666687l1.4000244 -6.666687l1.2000122 -5.333313l0.666626 -2.666687l0.33337402 -1.333313l0.8666382 -4.0l0.666687 -4.0l0.5333252 -4.0l0.333313 -2.666687l0.13336182 -2.6666565z" fill-rule="evenodd"/></g></svg>