<svg version="1.1" viewBox="0.0 0.0 1122.5196850393702 793.7007874015748" fill="none" stroke="none" stroke-linecap="square" stroke-miterlimit="10" xmlns:xlink="http://www.w3.org/1999/xlink" xmlns="http://www.w3.org/2000/svg"><clipPath id="p_1.0"><path d="m0 0l1122.5197 0l0 793.7008l-1122.5197 0l0 -793.7008z" clip-rule="nonzero"/></clipPath><g clip-path="url(#p_1.0)"><path fill="#000000" fill-opacity="0.0" d="m0 0l1122.5197 0l0 793.7008l-1122.5197 0z" fill-rule="evenodd"/><path fill="#cc819d" d="m586.2932 533.3837l-5.0 -0.13336182l-5.0 -0.46661377l-4.9332886 -0.8666992l-4.866699 -1.1333008l-4.799988 -1.5333862l-4.666687 -1.8666382l-4.5999756 -2.2666626l-4.466675 -2.5333252l-4.2666626 -3.0l-4.0 -3.2000122l-3.7999878 -3.4666748l-3.7333374 -3.6666565l-3.7333374 -3.7999878l-3.7334595 -3.7333374l-3.8665771 -3.5333557l-4.0 -3.2666626l-4.199951 -2.933319l-4.5333557 -2.399994l-4.8666687 -1.6000061l-5.066681 -0.8000183l-5.1333313 -0.1333313l-5.1999817 0.2000122l-5.2666626 0.3333435l-5.2666626 0.1333313l-5.133362 -0.2000122l-5.1333313 -0.9333191l-4.8666687 -1.5333557l-4.333313 -2.0l-3.7333374 -2.4666443l-3.2000122 -2.8666687l-2.7333374 -3.2000122l-2.1333313 -3.4666748l-1.7333069 -3.7999878l-1.2000122 -3.9333496l-0.6666565 -4.0666504l-0.26669312 -4.2666626l0.2000122 -4.2666626l0.6666565 -4.3333435l1.0666809 -4.3333435l1.4666748 -4.2666626l1.8666687 -4.1333313l2.333313 -3.933319l2.666687 -3.8001099l3.2666626 -3.8665771l3.4666443 -3.4666443l3.7333374 -3.266693l3.9332275 -3.0666504l4.0667725 -2.8667603l4.1333313 -2.7332458l4.200012 -2.6666565l4.2666626 -2.666687l4.200012 -2.6666565l4.1999817 -2.7333374l4.066681 -2.7999878l3.933319 -3.0l3.7333374 -3.1333313l3.600006 -3.4666748l3.2666626 -3.6666565l3.0 -4.066681l2.7333374 -4.333313l2.4666748 -4.466675l2.2000122 -4.533325l2.0 -4.666687l1.8666382 -4.7333374l1.7333374 -4.799988l1.5999756 -4.799988l1.5333862 -4.8666687l1.4666138 -4.9333496l1.4666748 -4.933319l1.4666748 -4.8666687l1.5333252 -4.9333496l1.6000366 -4.8666687l1.7333374 -4.799988l1.7999878 -4.7333374l2.0665283 -4.6666565l2.2001343 -4.600006l2.4666748 -4.466675l2.5333252 -4.0666504l2.8666382 -3.8666687l3.1333618 -3.7333374l3.333313 -3.4666748l3.666687 -3.1999817l3.7999878 -3.0l4.0 -2.600006l4.200012 -2.2000122l4.333313 -1.7999878l4.466675 -1.3999939l4.533325 -0.8666687l4.6000366 -0.3333435l4.7333374 0.2666626l4.666626 0.7999878l4.7333374 1.5333557l4.7333374 2.1999817l4.6000366 2.9333496l3.9332886 3.4666748l3.4000244 4.0666504l2.7333374 4.466675l2.0666504 4.799988l1.4000244 5.1333313l0.666626 5.399994l0.066711426 5.0l-0.4000244 5.133362l-0.5999756 5.333313l-0.4666748 5.3333435l-0.13336182 5.2666626l0.4666748 5.200012l1.4000244 5.0l2.5999756 4.733307l3.333313 4.266693l3.4666748 3.5999756l3.4666748 3.066681l3.6000366 2.7999878l3.666626 2.7333374l3.7333374 2.9333496l3.7999878 3.333313l3.8666992 3.8666687l3.3999634 4.066681l3.0 4.1999817l2.6000366 4.3333435l2.2000122 4.466675l1.8666382 4.6666565l1.5333252 4.7333374l1.2666626 4.8666687l0.8666992 4.8666687l0.666626 5.0l0.4000244 5.0666504l0.06665039 5.066681l-0.06665039 5.1333313l-0.333313 5.066681l-0.5333252 5.1333313l-0.7333374 5.0666504l-0.8666992 5.066681l-1.0 4.933319l-1.1333008 4.9333496l-1.333374 4.8666687l-1.3999634 4.799988l-1.6000366 4.8666687l-1.7999878 4.799988l-1.9333496 4.666687l-2.1333008 4.6666565l-2.2666626 4.533325l-2.5333252 4.466675l-2.666687 4.3333435l-2.8666992 4.1999817l-3.0666504 4.066681l-3.2000122 3.933319l-3.4666138 3.7333374l-3.6000366 3.5333252l-3.7999878 3.3333435l-4.0666504 3.1333618l-4.200012 2.8666382l-4.4000244 2.666687l-4.5999756 2.3999634l-4.7333374 2.0667114l-4.799988 1.7999878l-4.866699 1.4666748l-5.0 1.1333008l-4.9332886 0.7999878l-5.0667114 0.5333252l-5.0 0.13336182z" fill-rule="evenodd"/></g></svg>